<svg width="481" height="435" viewBox="0 0 481 435" fill="none" xmlns="http://www.w3.org/2000/svg">
<path d="M337.813 34.1532H323.113V37.2532H337.813V34.1532Z" fill="url(#paint0_linear_391_7261)"/>
<path d="M337.813 39.1532H323.113V42.2532H337.813V39.1532Z" fill="url(#paint1_linear_391_7261)"/>
<path d="M337.813 44.1532H323.113V47.2532H337.813V44.1532Z" fill="url(#paint2_linear_391_7261)"/>
<path d="M437.111 399.553H40.2109V99.3528C40.2109 87.4528 49.9109 77.7528 61.8109 77.7528H415.511C427.411 77.7528 437.111 87.4528 437.111 99.3528V399.553Z" fill="url(#paint3_linear_391_7261)"/>
<path d="M453.612 434.953H23.6125C10.8125 434.953 0.3125 424.453 0.3125 411.553V383.653H477.013V411.553C477.013 424.453 466.612 434.953 453.612 434.953Z" fill="url(#paint4_linear_391_7261)"/>
<path d="M407.914 153.653H69.4141V383.553H407.914V153.653Z" fill="url(#paint5_linear_391_7261)"/>
<path d="M393.914 102.653H83.4141C75.6141 102.653 69.4141 108.953 69.4141 116.653V153.653H407.914V116.653C407.914 108.953 401.614 102.653 393.914 102.653Z" fill="#4C9BE8"/>
<path d="M107.515 135.453C111.547 135.453 114.815 132.184 114.815 128.153C114.815 124.121 111.547 120.853 107.515 120.853C103.483 120.853 100.215 124.121 100.215 128.153C100.215 132.184 103.483 135.453 107.515 135.453Z" fill="url(#paint6_linear_391_7261)"/>
<path d="M130.214 135.453C134.246 135.453 137.514 132.184 137.514 128.153C137.514 124.121 134.246 120.853 130.214 120.853C126.182 120.853 122.914 124.121 122.914 128.153C122.914 132.184 126.182 135.453 130.214 135.453Z" fill="url(#paint7_linear_391_7261)"/>
<path d="M152.816 135.453C156.847 135.453 160.116 132.184 160.116 128.153C160.116 124.121 156.847 120.853 152.816 120.853C148.784 120.853 145.516 124.121 145.516 128.153C145.516 132.184 148.784 135.453 152.816 135.453Z" fill="url(#paint8_linear_391_7261)"/>
<path d="M378.115 185.353H100.215V251.253H378.115V185.353Z" fill="url(#paint9_linear_391_7261)"/>
<path d="M225.515 274.153H100.215V359.653H225.515V274.153Z" fill="url(#paint10_linear_391_7261)"/>
<path d="M378.112 274.153H252.812V359.653H378.112V274.153Z" fill="url(#paint11_linear_391_7261)"/>
<path d="M312.711 383.653H164.711V405.853H312.711V383.653Z" fill="#4C9BE8"/>
<path d="M451.512 304.554H315.312C299.112 304.554 286.012 291.454 286.012 275.254V29.8536C286.012 13.6536 299.112 0.553589 315.312 0.553589H451.512C467.712 0.553589 480.812 13.6536 480.812 29.8536V275.254C480.912 291.454 467.712 304.554 451.512 304.554Z" fill="#00355C"/>
<path d="M447.311 277.054H319.511C312.711 277.054 307.211 271.554 307.211 264.754V40.3536C307.211 33.5536 312.711 28.0536 319.511 28.0536H447.311C454.111 28.0536 459.611 33.5536 459.611 40.3536V264.654C459.711 271.554 454.111 277.054 447.311 277.054Z" fill="white"/>
<path d="M448.313 62.5536H318.613V136.554H448.313V62.5536Z" fill="url(#paint12_linear_391_7261)"/>
<path d="M377.113 162.054H318.613V258.054H377.113V162.054Z" fill="url(#paint13_linear_391_7261)"/>
<path d="M448.312 162.054H389.812V258.054H448.312V162.054Z" fill="url(#paint14_linear_391_7261)"/>
<path d="M411.611 17.9536H355.211C353.511 17.9536 352.211 16.6536 352.211 14.9536C352.211 13.2536 353.511 11.9536 355.211 11.9536H411.611C413.311 11.9536 414.611 13.2536 414.611 14.9536C414.611 16.6536 413.311 17.9536 411.611 17.9536Z" fill="#007FDB"/>
<path d="M459.711 40.3536C459.711 33.5536 454.211 28.0536 447.411 28.0536H319.511C312.711 28.0536 307.211 33.5536 307.211 40.3536V53.3536H459.711V40.3536Z" fill="#4C9BE8"/>
<path d="M286.013 347.653C312.633 347.653 334.212 326.073 334.212 299.453C334.212 272.833 312.633 251.253 286.013 251.253C259.392 251.253 237.812 272.833 237.812 299.453C237.812 326.073 259.392 347.653 286.013 347.653Z" fill="white"/>
<path d="M302.017 282.222L274.723 309.516L281.935 316.728L309.229 289.434L302.017 282.222Z" fill="#65DD89"/>
<path d="M269.955 290.226L262.742 297.438L281.975 316.671L289.188 309.459L269.955 290.226Z" fill="#65DD89"/>
<defs>
<linearGradient id="paint0_linear_391_7261" x1="323.083" y1="35.6769" x2="337.744" y2="35.6769" gradientUnits="userSpaceOnUse">
<stop stop-color="white"/>
<stop offset="1" stop-color="#E0EAFF"/>
</linearGradient>
<linearGradient id="paint1_linear_391_7261" x1="323.083" y1="40.7105" x2="337.744" y2="40.7105" gradientUnits="userSpaceOnUse">
<stop stop-color="white"/>
<stop offset="1" stop-color="#E0EAFF"/>
</linearGradient>
<linearGradient id="paint2_linear_391_7261" x1="323.083" y1="45.7441" x2="337.744" y2="45.7441" gradientUnits="userSpaceOnUse">
<stop stop-color="white"/>
<stop offset="1" stop-color="#E0EAFF"/>
</linearGradient>
<linearGradient id="paint3_linear_391_7261" x1="238.673" y1="304.931" x2="238.673" y2="380.203" gradientUnits="userSpaceOnUse">
<stop stop-color="#A4DAFF"/>
<stop offset="1" stop-color="#62AFEF"/>
</linearGradient>
<linearGradient id="paint4_linear_391_7261" x1="238.674" y1="389.707" x2="238.674" y2="442.555" gradientUnits="userSpaceOnUse">
<stop stop-color="#A4DAFF"/>
<stop offset="1" stop-color="#62AFEF"/>
</linearGradient>
<linearGradient id="paint5_linear_391_7261" x1="238.676" y1="380.16" x2="238.676" y2="153.427" gradientUnits="userSpaceOnUse">
<stop stop-color="white"/>
<stop offset="1" stop-color="#E0EAFF"/>
</linearGradient>
<linearGradient id="paint6_linear_391_7261" x1="100.214" y1="128.181" x2="114.755" y2="128.181" gradientUnits="userSpaceOnUse">
<stop stop-color="white"/>
<stop offset="1" stop-color="#E0EAFF"/>
</linearGradient>
<linearGradient id="paint7_linear_391_7261" x1="122.902" y1="128.181" x2="137.443" y2="128.181" gradientUnits="userSpaceOnUse">
<stop stop-color="white"/>
<stop offset="1" stop-color="#E0EAFF"/>
</linearGradient>
<linearGradient id="paint8_linear_391_7261" x1="145.592" y1="128.181" x2="160.134" y2="128.181" gradientUnits="userSpaceOnUse">
<stop stop-color="white"/>
<stop offset="1" stop-color="#E0EAFF"/>
</linearGradient>
<linearGradient id="paint9_linear_391_7261" x1="239.146" y1="251.479" x2="239.146" y2="158.543" gradientUnits="userSpaceOnUse">
<stop stop-color="#A4DAFF"/>
<stop offset="1" stop-color="#62AFEF"/>
</linearGradient>
<linearGradient id="paint10_linear_391_7261" x1="162.864" y1="364.84" x2="162.864" y2="261.686" gradientUnits="userSpaceOnUse">
<stop stop-color="#A4DAFF"/>
<stop offset="1" stop-color="#62AFEF"/>
</linearGradient>
<linearGradient id="paint11_linear_391_7261" x1="315.425" y1="362.798" x2="315.425" y2="294.372" gradientUnits="userSpaceOnUse">
<stop stop-color="#A4DAFF"/>
<stop offset="1" stop-color="#62AFEF"/>
</linearGradient>
<linearGradient id="paint12_linear_391_7261" x1="383.436" y1="138.284" x2="383.436" y2="62.6015" gradientUnits="userSpaceOnUse">
<stop stop-color="white"/>
<stop offset="1" stop-color="#E0EAFF"/>
</linearGradient>
<linearGradient id="paint13_linear_391_7261" x1="318.585" y1="210.083" x2="377.072" y2="210.083" gradientUnits="userSpaceOnUse">
<stop stop-color="white"/>
<stop offset="1" stop-color="#E0EAFF"/>
</linearGradient>
<linearGradient id="paint14_linear_391_7261" x1="389.798" y1="210.083" x2="448.286" y2="210.083" gradientUnits="userSpaceOnUse">
<stop stop-color="white"/>
<stop offset="1" stop-color="#E0EAFF"/>
</linearGradient>
</defs>
</svg>
