<svg width="423" height="448" viewBox="0 0 423 448" fill="none" xmlns="http://www.w3.org/2000/svg">
<g clip-path="url(#clip0_391_7127)">
<path d="M0.660156 45.7V429.5C0.660156 439.5 8.76016 447.7 18.8602 447.7H355.46C365.46 447.7 373.66 439.6 373.66 429.5V45.7H0.660156Z" fill="url(#paint0_linear_391_7127)"/>
<path d="M361.16 0H13.2602C6.26016 0 0.660156 5.6 0.660156 12.6V45.7H373.66V12.6C373.66 5.6 368.06 0 361.16 0Z" fill="#00355C"/>
<path d="M34.7617 29.4C38.3516 29.4 41.2617 26.4899 41.2617 22.9C41.2617 19.3102 38.3516 16.4 34.7617 16.4C31.1719 16.4 28.2617 19.3102 28.2617 22.9C28.2617 26.4899 31.1719 29.4 34.7617 29.4Z" fill="#B8D2FF"/>
<path d="M55.0625 29.4C58.6524 29.4 61.5625 26.4899 61.5625 22.9C61.5625 19.3102 58.6524 16.4 55.0625 16.4C51.4726 16.4 48.5625 19.3102 48.5625 22.9C48.5625 26.4899 51.4726 29.4 55.0625 29.4Z" fill="#007FDB"/>
<path d="M75.3633 29.4C78.9531 29.4 81.8633 26.4899 81.8633 22.9C81.8633 19.3102 78.9531 16.4 75.3633 16.4C71.7734 16.4 68.8633 19.3102 68.8633 22.9C68.8633 26.4899 71.7734 29.4 75.3633 29.4Z" fill="#65DD89"/>
<path d="M346.962 74.1H28.2617V221H346.962V74.1Z" fill="url(#paint1_linear_391_7127)"/>
<path d="M160.762 238.4H28.2617V419.5H160.762V238.4Z" fill="url(#paint2_linear_391_7127)"/>
<path d="M346.959 238.4H175.359V419.5H346.959V238.4Z" fill="url(#paint3_linear_391_7127)"/>
<path d="M122.762 134.4V337.4C122.762 345.5 129.262 352 137.362 352H407.862C415.962 352 422.462 345.5 422.462 337.4V134.4H122.762Z" fill="#F6F5F7"/>
<path d="M412.362 97.7H132.862C127.262 97.7 122.762 102.2 122.762 107.8V134.4H422.462V107.8C422.462 102.2 417.962 97.7 412.362 97.7Z" fill="#00355C"/>
<path d="M150.161 121.3C153.033 121.3 155.361 118.972 155.361 116.1C155.361 113.228 153.033 110.9 150.161 110.9C147.289 110.9 144.961 113.228 144.961 116.1C144.961 118.972 147.289 121.3 150.161 121.3Z" fill="#007FDB"/>
<path d="M166.462 121.3C169.334 121.3 171.662 118.972 171.662 116.1C171.662 113.228 169.334 110.9 166.462 110.9C163.59 110.9 161.262 113.228 161.262 116.1C161.262 118.972 163.59 121.3 166.462 121.3Z" fill="#007FDB"/>
<path d="M182.763 121.3C185.634 121.3 187.963 118.972 187.963 116.1C187.963 113.228 185.634 110.9 182.763 110.9C179.891 110.9 177.562 113.228 177.562 116.1C177.562 118.972 179.891 121.3 182.763 121.3Z" fill="#007FDB"/>
<path d="M157.562 171.3H151.762C149.262 171.3 147.262 169.3 147.262 166.8C147.262 164.3 149.262 162.3 151.762 162.3H157.562C160.062 162.3 162.062 164.3 162.062 166.8C162.062 169.3 160.062 171.3 157.562 171.3Z" fill="#B8D2FF"/>
<path d="M238.56 171.3H175.66C173.16 171.3 171.16 169.3 171.16 166.8C171.16 164.3 173.16 162.3 175.66 162.3H238.56C241.06 162.3 243.06 164.3 243.06 166.8C243.06 169.3 241.06 171.3 238.56 171.3Z" fill="#3734A9"/>
<path d="M304.06 171.3H255.66C253.16 171.3 251.16 169.3 251.16 166.8C251.16 164.3 253.16 162.3 255.66 162.3H303.96C306.46 162.3 308.46 164.3 308.46 166.8C308.46 169.3 306.46 171.3 304.06 171.3Z" fill="#B8D2FF"/>
<path d="M393.462 171.3H326.562C324.062 171.3 322.062 169.3 322.062 166.8C322.062 164.3 324.062 162.3 326.562 162.3H393.462C395.962 162.3 397.962 164.3 397.962 166.8C397.862 169.3 395.862 171.3 393.462 171.3Z" fill="#65DD89"/>
<path d="M157.562 196.8H151.762C149.262 196.8 147.262 194.8 147.262 192.3C147.262 189.8 149.262 187.8 151.762 187.8H157.562C160.062 187.8 162.062 189.8 162.062 192.3C162.062 194.8 160.062 196.8 157.562 196.8Z" fill="#B8D2FF"/>
<path d="M238.56 196.8H175.66C173.16 196.8 171.16 194.8 171.16 192.3C171.16 189.8 173.16 187.8 175.66 187.8H238.56C241.06 187.8 243.06 189.8 243.06 192.3C243.06 194.8 241.06 196.8 238.56 196.8Z" fill="#65DD89"/>
<path d="M269.26 196.8H255.66C253.16 196.8 251.16 194.8 251.16 192.3C251.16 189.8 253.16 187.8 255.66 187.8H269.16C271.66 187.8 273.66 189.8 273.66 192.3C273.66 194.8 271.66 196.8 269.26 196.8Z" fill="#B8D2FF"/>
<path d="M393.461 196.8H284.961C282.461 196.8 280.461 194.8 280.461 192.3C280.461 189.8 282.461 187.8 284.961 187.8H393.461C395.961 187.8 397.961 189.8 397.961 192.3C397.861 194.8 395.861 196.8 393.461 196.8Z" fill="#3734A9"/>
<path d="M157.562 222.2H151.762C149.262 222.2 147.262 220.2 147.262 217.7C147.262 215.2 149.262 213.2 151.762 213.2H157.562C160.062 213.2 162.062 215.2 162.062 217.7C162.062 220.2 160.062 222.2 157.562 222.2Z" fill="#B8D2FF"/>
<path d="M238.56 222.2H175.66C173.16 222.2 171.16 220.2 171.16 217.7C171.16 215.2 173.16 213.2 175.66 213.2H238.56C241.06 213.2 243.06 215.2 243.06 217.7C243.06 220.2 241.06 222.2 238.56 222.2Z" fill="#3734A9"/>
<path d="M285.46 222.2H255.66C253.16 222.2 251.16 220.2 251.16 217.7C251.16 215.2 253.16 213.2 255.66 213.2H285.36C287.86 213.2 289.86 215.2 289.86 217.7C289.86 220.2 287.86 222.2 285.46 222.2Z" fill="#B8D2FF"/>
<path d="M393.462 222.2H304.262C301.762 222.2 299.762 220.2 299.762 217.7C299.762 215.2 301.762 213.2 304.262 213.2H393.462C395.962 213.2 397.962 215.2 397.962 217.7C397.862 220.2 395.862 222.2 393.462 222.2Z" fill="#4C9BE8"/>
<path d="M157.562 247.7H151.762C149.262 247.7 147.262 245.7 147.262 243.2C147.262 240.7 149.262 238.7 151.762 238.7H157.562C160.062 238.7 162.062 240.7 162.062 243.2C162.062 245.7 160.062 247.7 157.562 247.7Z" fill="#B8D2FF"/>
<path d="M186.66 247.7H175.66C173.16 247.7 171.16 245.7 171.16 243.2C171.16 240.7 173.16 238.7 175.66 238.7H186.66C189.16 238.7 191.16 240.7 191.16 243.2C191.16 245.7 189.16 247.7 186.66 247.7Z" fill="#B8D2FF"/>
<path d="M269.263 247.7H207.363C204.863 247.7 202.863 245.7 202.863 243.2C202.863 240.7 204.863 238.7 207.363 238.7H269.263C271.763 238.7 273.763 240.7 273.763 243.2C273.663 245.7 271.663 247.7 269.263 247.7Z" fill="#4C9BE8"/>
<path d="M393.461 247.7H290.961C288.461 247.7 286.461 245.7 286.461 243.2C286.461 240.7 288.461 238.7 290.961 238.7H393.461C395.961 238.7 397.961 240.7 397.961 243.2C397.861 245.7 395.861 247.7 393.461 247.7Z" fill="#3734A9"/>
<path d="M157.562 273.2H151.762C149.262 273.2 147.262 271.2 147.262 268.7C147.262 266.2 149.262 264.2 151.762 264.2H157.562C160.062 264.2 162.062 266.2 162.062 268.7C162.062 271.2 160.062 273.2 157.562 273.2Z" fill="#B8D2FF"/>
<path d="M238.56 273.2H175.66C173.16 273.2 171.16 271.2 171.16 268.7C171.16 266.2 173.16 264.2 175.66 264.2H238.56C241.06 264.2 243.06 266.2 243.06 268.7C243.06 271.2 241.06 273.2 238.56 273.2Z" fill="#4C9BE8"/>
<path d="M336.16 273.2H255.66C253.16 273.2 251.16 271.2 251.16 268.7C251.16 266.2 253.16 264.2 255.66 264.2H336.16C338.66 264.2 340.66 266.2 340.66 268.7C340.66 271.2 338.66 273.2 336.16 273.2Z" fill="#B8D2FF"/>
<path d="M393.46 273.2H358.66C356.16 273.2 354.16 271.2 354.16 268.7C354.16 266.2 356.16 264.2 358.66 264.2H393.46C395.96 264.2 397.96 266.2 397.96 268.7C397.86 271.2 395.86 273.2 393.46 273.2Z" fill="#4C9BE8"/>
<path d="M157.562 298.6H151.762C149.262 298.6 147.262 296.6 147.262 294.1C147.262 291.6 149.262 289.6 151.762 289.6H157.562C160.062 289.6 162.062 291.6 162.062 294.1C162.062 296.6 160.062 298.6 157.562 298.6Z" fill="#B8D2FF"/>
<path d="M238.56 298.6H175.66C173.16 298.6 171.16 296.6 171.16 294.1C171.16 291.6 173.16 289.6 175.66 289.6H238.56C241.06 289.6 243.06 291.6 243.06 294.1C243.06 296.6 241.06 298.6 238.56 298.6Z" fill="#B8D2FF"/>
<path d="M297.762 298.6H255.762C253.262 298.6 251.262 296.6 251.262 294.1C251.262 291.6 253.262 289.6 255.762 289.6H297.762C300.262 289.6 302.262 291.6 302.262 294.1C302.162 296.6 300.162 298.6 297.762 298.6Z" fill="#4C9BE8"/>
<path d="M393.462 298.6H317.062C314.562 298.6 312.562 296.6 312.562 294.1C312.562 291.6 314.562 289.6 317.062 289.6H393.462C395.962 289.6 397.962 291.6 397.962 294.1C397.862 296.6 395.862 298.6 393.462 298.6Z" fill="#3734A9"/>
<path d="M157.562 324.1H151.762C149.262 324.1 147.262 322.1 147.262 319.6C147.262 317.1 149.262 315.1 151.762 315.1H157.562C160.062 315.1 162.062 317.1 162.062 319.6C162.062 322.1 160.062 324.1 157.562 324.1Z" fill="#B8D2FF"/>
<path d="M206.662 324.1H175.762C173.262 324.1 171.262 322.1 171.262 319.6C171.262 317.1 173.262 315.1 175.762 315.1H206.662C209.162 315.1 211.162 317.1 211.162 319.6C211.062 322.1 209.062 324.1 206.662 324.1Z" fill="#3734A9"/>
<path d="M269.26 324.1H229.16C226.66 324.1 224.66 322.1 224.66 319.6C224.66 317.1 226.66 315.1 229.16 315.1H269.26C271.76 315.1 273.76 317.1 273.76 319.6C273.66 322.1 271.66 324.1 269.26 324.1Z" fill="#B8D2FF"/>
<path d="M393.461 324.1H289.961C287.461 324.1 285.461 322.1 285.461 319.6C285.461 317.1 287.461 315.1 289.961 315.1H393.361C395.861 315.1 397.861 317.1 397.861 319.6C397.861 322.1 395.861 324.1 393.461 324.1Z" fill="#4C9BE8"/>
<path d="M122.759 400.2C149.379 400.2 170.959 378.62 170.959 352C170.959 325.38 149.379 303.8 122.759 303.8C96.1385 303.8 74.5586 325.38 74.5586 352C74.5586 378.62 96.1385 400.2 122.759 400.2Z" fill="white"/>
<path d="M138.771 334.753L111.477 362.047L118.689 369.26L145.983 341.966L138.771 334.753Z" fill="#65DD89"/>
<path d="M106.709 342.757L99.4961 349.97L118.729 369.203L125.942 361.99L106.709 342.757Z" fill="#65DD89"/>
</g>
<defs>
<linearGradient id="paint0_linear_391_7127" x1="187.171" y1="463.476" x2="187.171" y2="65.034" gradientUnits="userSpaceOnUse">
<stop stop-color="white"/>
<stop offset="1" stop-color="#E0EAFF"/>
</linearGradient>
<linearGradient id="paint1_linear_391_7127" x1="187.593" y1="224.497" x2="187.593" y2="74.1997" gradientUnits="userSpaceOnUse">
<stop stop-color="#A4DAFF"/>
<stop offset="1" stop-color="#62AFEF"/>
</linearGradient>
<linearGradient id="paint2_linear_391_7127" x1="94.4698" y1="421.604" x2="94.4698" y2="246.918" gradientUnits="userSpaceOnUse">
<stop stop-color="#A4DAFF"/>
<stop offset="1" stop-color="#62AFEF"/>
</linearGradient>
<linearGradient id="paint3_linear_391_7127" x1="261.159" y1="419.532" x2="261.159" y2="240.622" gradientUnits="userSpaceOnUse">
<stop stop-color="#A4DAFF"/>
<stop offset="1" stop-color="#62AFEF"/>
</linearGradient>
<clipPath id="clip0_391_7127">
<rect width="421.8" height="447.7" fill="white" transform="translate(0.660156)"/>
</clipPath>
</defs>
</svg>
