<svg width="502" height="447" viewBox="0 0 502 447" fill="none" xmlns="http://www.w3.org/2000/svg">
<path d="M193.62 68.3L183.32 66.5C182.12 62 180.32 57.7 178.02 53.7L184.02 45.1C186.22 42 185.82 37.7 183.12 35L176.92 28.8C174.12 26.1 169.92 25.8 166.82 28.1L158.22 34.1C154.22 31.8 149.92 30 145.42 28.8L143.62 18.3C143.02 14.4 139.82 11.7 136.02 11.6H127.12C123.22 11.6 119.92 14.4 119.32 18.2L117.52 28.5C113.02 29.7 108.72 31.5 104.72 33.8L96.2203 28.1C93.1203 25.9 88.8203 26.3 86.1203 29L79.9203 35.2C77.2203 37.9 76.8203 42.2 79.0203 45.3L85.0203 53.9C82.7203 57.9 80.9203 62.2 79.7203 66.7L69.4203 68.5C65.6203 69.2 62.8203 72.5 62.8203 76.3V85C62.8203 88.9 65.6203 92.2 69.4203 92.8L79.7203 94.6C80.9203 99.1 82.7203 103.4 85.0203 107.4L79.0203 116C76.8203 119.1 77.2203 123.4 79.9203 126.1L86.1203 132.3C88.8203 135 93.1203 135.4 96.2203 133.2L104.82 127.2C108.82 129.5 113.12 131.3 117.62 132.5L119.42 142.8C120.12 146.6 123.42 149.4 127.22 149.4H136.02C139.92 149.4 143.22 146.6 143.82 142.8L145.62 132.5C150.12 131.3 154.42 129.5 158.42 127.2L166.82 133.1C169.92 135.3 174.22 134.9 176.92 132.2L183.12 126C185.82 123.3 186.22 119 184.02 115.9L178.02 107.3C180.32 103.3 182.12 99 183.32 94.5L193.62 92.7C197.42 92 200.22 88.7 200.22 84.9V76.2C200.22 72.2 197.42 68.9 193.62 68.3ZM131.42 104C118.42 104 107.82 93.4 107.82 80.4C107.82 67.4 118.42 56.8 131.42 56.8C144.42 56.8 155.02 67.4 155.02 80.4V80.5C154.92 93.5 144.42 104 131.42 104Z" fill="url(#paint0_linear_391_7195)"/>
<path d="M464.322 302.1L454.022 300.3C452.822 295.8 451.022 291.5 448.722 287.5L454.722 278.9C456.922 275.8 456.522 271.5 453.822 268.8L447.622 262.6C444.822 259.9 440.622 259.6 437.522 261.9L428.922 267.9C424.922 265.6 420.622 263.8 416.122 262.6L414.322 252.1C413.722 248.4 410.422 245.6 406.622 245.5H397.722C393.822 245.5 390.522 248.3 389.922 252.1L388.122 262.4C383.622 263.6 379.322 265.4 375.322 267.7L366.822 262C363.722 259.8 359.422 260.2 356.722 262.9L350.522 269.1C347.822 271.8 347.422 276.1 349.622 279.2L355.622 287.8C353.322 291.8 351.522 296.1 350.322 300.6L340.022 302.4C336.222 303.1 333.422 306.4 333.422 310.2V318.9C333.422 322.8 336.222 326.1 340.022 326.7L350.322 328.5C351.522 333 353.322 337.3 355.622 341.3L349.622 349.9C347.422 353 347.822 357.3 350.522 360L356.722 366.2C359.422 368.9 363.722 369.3 366.822 367.1L375.422 361.1C379.422 363.4 383.722 365.2 388.222 366.4L390.022 376.7C390.722 380.5 394.022 383.3 397.822 383.3H406.722C410.622 383.3 413.922 380.5 414.522 376.7L416.322 366.4C420.822 365.2 425.122 363.4 429.122 361.1L437.522 367C440.622 369.2 444.922 368.8 447.622 366.1L453.822 359.9C456.522 357.2 456.922 352.9 454.722 349.8L448.722 341.2C451.022 337.2 452.822 332.9 454.022 328.4L464.322 326.6C468.122 325.9 470.922 322.6 470.922 318.8V310.1C470.922 306.1 468.122 302.8 464.322 302.1ZM402.122 337.9C389.122 337.9 378.522 327.3 378.522 314.3C378.522 301.3 389.122 290.7 402.122 290.7C415.122 290.7 425.722 301.3 425.722 314.3V314.4C425.622 327.4 415.122 337.9 402.122 337.9Z" fill="url(#paint1_linear_391_7195)"/>
<path d="M131.523 46V296.3C131.523 306.3 139.623 314.3 149.523 314.3H483.123C493.123 314.3 501.123 306.2 501.123 296.3V46H131.523Z" fill="url(#paint2_linear_391_7195)"/>
<path d="M488.623 0.700012H143.923C137.023 0.700012 131.523 6.30001 131.523 13.2V46H501.123V13.2C501.123 6.30001 495.523 0.700012 488.623 0.700012Z" fill="#00355C"/>
<path d="M165.223 29.8C168.813 29.8 171.723 26.8898 171.723 23.3C171.723 19.7101 168.813 16.8 165.223 16.8C161.633 16.8 158.723 19.7101 158.723 23.3C158.723 26.8898 161.633 29.8 165.223 29.8Z" fill="#007FDB"/>
<path d="M185.422 29.8C189.012 29.8 191.922 26.8898 191.922 23.3C191.922 19.7101 189.012 16.8 185.422 16.8C181.832 16.8 178.922 19.7101 178.922 23.3C178.922 26.8898 181.832 29.8 185.422 29.8Z" fill="#007FDB"/>
<path d="M205.523 29.8C209.113 29.8 212.023 26.8898 212.023 23.3C212.023 19.7101 209.113 16.8 205.523 16.8C201.934 16.8 199.023 19.7101 199.023 23.3C199.023 26.8898 201.934 29.8 205.523 29.8Z" fill="#007FDB"/>
<path d="M174.423 91.5H167.223C164.223 91.5 161.723 89 161.723 86C161.723 83 164.223 80.5 167.223 80.5H174.423C177.423 80.5 179.923 83 179.923 86C179.923 89 177.523 91.5 174.423 91.5Z" fill="url(#paint3_linear_391_7195)"/>
<path d="M274.323 91.5H196.723C193.723 91.5 191.223 89 191.223 86C191.223 83 193.723 80.5 196.723 80.5H274.323C277.323 80.5 279.823 83 279.823 86C279.923 89 277.423 91.5 274.323 91.5Z" fill="url(#paint4_linear_391_7195)"/>
<path d="M355.022 91.5H295.422C292.422 91.5 289.922 89 289.922 86C289.922 83 292.422 80.5 295.422 80.5H355.022C358.022 80.5 360.522 83 360.522 86C360.522 89 358.122 91.5 355.022 91.5Z" fill="url(#paint5_linear_391_7195)"/>
<path d="M465.323 91.5H382.723C379.723 91.5 377.223 89 377.223 86C377.223 83 379.723 80.5 382.723 80.5H465.323C468.323 80.5 470.823 83 470.823 86C470.823 89 468.323 91.5 465.323 91.5Z" fill="url(#paint6_linear_391_7195)"/>
<path d="M174.423 122.9H167.223C164.223 122.9 161.723 120.4 161.723 117.4C161.723 114.4 164.223 111.9 167.223 111.9H174.423C177.423 111.9 179.923 114.4 179.923 117.4C179.923 120.4 177.523 122.9 174.423 122.9Z" fill="url(#paint7_linear_391_7195)"/>
<path d="M274.323 122.9H196.723C193.723 122.9 191.223 120.4 191.223 117.4C191.223 114.4 193.723 111.9 196.723 111.9H274.323C277.323 111.9 279.823 114.4 279.823 117.4C279.923 120.4 277.423 122.9 274.323 122.9Z" fill="url(#paint8_linear_391_7195)"/>
<path d="M312.122 122.9H295.422C292.422 122.9 289.922 120.4 289.922 117.4C289.922 114.4 292.422 111.9 295.422 111.9H312.122C315.122 111.9 317.622 114.4 317.622 117.4C317.622 120.4 315.122 122.9 312.122 122.9Z" fill="url(#paint9_linear_391_7195)"/>
<path d="M465.323 122.9H331.523C328.523 122.9 326.023 120.4 326.023 117.4C326.023 114.4 328.523 111.9 331.523 111.9H465.323C468.323 111.9 470.823 114.4 470.823 117.4C470.823 120.4 468.323 122.9 465.323 122.9Z" fill="url(#paint10_linear_391_7195)"/>
<path d="M174.423 154.3H167.223C164.223 154.3 161.723 151.8 161.723 148.8C161.723 145.8 164.223 143.3 167.223 143.3H174.423C177.423 143.3 179.923 145.8 179.923 148.8C179.923 151.8 177.523 154.3 174.423 154.3Z" fill="#B8D2FF"/>
<path d="M274.323 154.3H196.723C193.723 154.3 191.223 151.8 191.223 148.8C191.223 145.8 193.723 143.3 196.723 143.3H274.323C277.323 143.3 279.823 145.8 279.823 148.8C279.923 151.8 277.423 154.3 274.323 154.3Z" fill="url(#paint11_linear_391_7195)"/>
<path d="M332.123 154.3H295.523C292.523 154.3 290.023 151.8 290.023 148.8C290.023 145.8 292.523 143.3 295.523 143.3H332.123C335.123 143.3 337.623 145.8 337.623 148.8C337.623 151.8 335.123 154.3 332.123 154.3Z" fill="url(#paint12_linear_391_7195)"/>
<path d="M465.324 154.3H355.324C352.324 154.3 349.824 151.8 349.824 148.8C349.824 145.8 352.324 143.3 355.324 143.3H465.324C468.324 143.3 470.824 145.8 470.824 148.8C470.824 151.8 468.324 154.3 465.324 154.3Z" fill="url(#paint13_linear_391_7195)"/>
<path d="M174.423 185.7H167.223C164.223 185.7 161.723 183.2 161.723 180.2C161.723 177.2 164.223 174.7 167.223 174.7H174.423C177.423 174.7 179.923 177.2 179.923 180.2C179.923 183.2 177.523 185.7 174.423 185.7Z" fill="#B8D2FF"/>
<path d="M210.324 185.7H196.824C193.824 185.7 191.324 183.2 191.324 180.2C191.324 177.2 193.824 174.7 196.824 174.7H210.324C213.324 174.7 215.824 177.2 215.824 180.2C215.824 183.2 213.424 185.7 210.324 185.7Z" fill="#B8D2FF"/>
<path d="M312.124 185.7H235.824C232.824 185.7 230.324 183.2 230.324 180.2C230.324 177.2 232.824 174.7 235.824 174.7H312.124C315.124 174.7 317.624 177.2 317.624 180.2C317.624 183.2 315.124 185.7 312.124 185.7Z" fill="url(#paint14_linear_391_7195)"/>
<path d="M465.322 185.7H338.922C335.922 185.7 333.422 183.2 333.422 180.2C333.422 177.2 335.922 174.7 338.922 174.7H465.322C468.322 174.7 470.822 177.2 470.822 180.2C470.822 183.2 468.322 185.7 465.322 185.7Z" fill="url(#paint15_linear_391_7195)"/>
<path d="M174.423 217.1H167.223C164.223 217.1 161.723 214.6 161.723 211.6C161.723 208.6 164.223 206.1 167.223 206.1H174.423C177.423 206.1 179.923 208.6 179.923 211.6C179.923 214.6 177.523 217.1 174.423 217.1Z" fill="#B8D2FF"/>
<path d="M274.323 217.1H196.723C193.723 217.1 191.223 214.6 191.223 211.6C191.223 208.6 193.723 206.1 196.723 206.1H274.323C277.323 206.1 279.823 208.6 279.823 211.6C279.923 214.6 277.423 217.1 274.323 217.1Z" fill="url(#paint16_linear_391_7195)"/>
<path d="M394.622 217.1H295.422C292.422 217.1 289.922 214.6 289.922 211.6C289.922 208.6 292.422 206.1 295.422 206.1H394.622C397.622 206.1 400.122 208.6 400.122 211.6C400.222 214.6 397.722 217.1 394.622 217.1Z" fill="url(#paint17_linear_391_7195)"/>
<path d="M465.322 217.1H422.422C419.422 217.1 416.922 214.6 416.922 211.6C416.922 208.6 419.422 206.1 422.422 206.1H465.322C468.322 206.1 470.822 208.6 470.822 211.6C470.822 214.6 468.322 217.1 465.322 217.1Z" fill="url(#paint18_linear_391_7195)"/>
<path d="M174.423 248.5H167.223C164.223 248.5 161.723 246 161.723 243C161.723 240 164.223 237.5 167.223 237.5H174.423C177.423 237.5 179.923 240 179.923 243C179.923 246 177.523 248.5 174.423 248.5Z" fill="#B8D2FF"/>
<path d="M274.323 248.5H196.723C193.723 248.5 191.223 246 191.223 243C191.223 240 193.723 237.5 196.723 237.5H274.323C277.323 237.5 279.823 240 279.823 243C279.923 246 277.423 248.5 274.323 248.5Z" fill="#B8D2FF"/>
<path d="M347.323 248.5H295.523C292.523 248.5 290.023 246 290.023 243C290.023 240 292.523 237.5 295.523 237.5H347.323C350.323 237.5 352.823 240 352.823 243C352.823 246 350.323 248.5 347.323 248.5Z" fill="url(#paint19_linear_391_7195)"/>
<path d="M465.321 248.5H371.121C368.121 248.5 365.621 246 365.621 243C365.621 240 368.121 237.5 371.121 237.5H465.321C468.321 237.5 470.821 240 470.821 243C470.821 246 468.321 248.5 465.321 248.5Z" fill="url(#paint20_linear_391_7195)"/>
<path d="M174.423 279.9H167.223C164.223 279.9 161.723 277.4 161.723 274.4C161.723 271.4 164.223 268.9 167.223 268.9H174.423C177.423 268.9 179.923 271.4 179.923 274.4C179.923 277.4 177.523 279.9 174.423 279.9Z" fill="#B8D2FF"/>
<path d="M234.924 279.9H196.824C193.824 279.9 191.324 277.4 191.324 274.4C191.324 271.4 193.824 268.9 196.824 268.9H234.924C237.924 268.9 240.424 271.4 240.424 274.4C240.424 277.4 238.024 279.9 234.924 279.9Z" fill="#3734A9"/>
<path d="M312.121 279.9H262.621C259.621 279.9 257.121 277.4 257.121 274.4C257.121 271.4 259.621 268.9 262.621 268.9H312.121C315.121 268.9 317.621 271.4 317.621 274.4C317.621 277.4 315.121 279.9 312.121 279.9Z" fill="url(#paint21_linear_391_7195)"/>
<path d="M465.323 279.9H337.723C334.723 279.9 332.223 277.4 332.223 274.4C332.223 271.4 334.723 268.9 337.723 268.9H465.323C468.323 268.9 470.823 271.4 470.823 274.4C470.823 277.4 468.323 279.9 465.323 279.9Z" fill="url(#paint22_linear_391_7195)"/>
<path d="M189.421 139.5H153.121V163.4H189.421V139.5Z" fill="#4C9BE8"/>
<path d="M204.82 131.1H137.82V145.7H204.82V131.1Z" fill="#00355C"/>
<path d="M256.253 361.136C303.428 313.961 303.428 237.475 256.253 190.301C209.078 143.126 132.593 143.126 85.4177 190.301C38.2428 237.475 38.2428 313.961 85.4177 361.136C132.593 408.311 209.078 408.311 256.253 361.136Z" fill="#00355C"/>
<path d="M240.98 345.863C279.719 307.123 279.719 244.314 240.98 205.574C202.24 166.834 139.431 166.834 100.691 205.574C61.9516 244.314 61.9516 307.123 100.691 345.863C139.431 384.602 202.24 384.602 240.98 345.863Z" fill="#F6F5F7"/>
<path d="M114.822 222.2C114.222 222.2 113.522 222 113.022 221.5L108.922 217.4C107.922 216.4 107.922 214.8 108.922 213.9C109.922 212.9 111.522 212.9 112.422 213.9L116.522 218C117.522 219 117.522 220.6 116.522 221.5C116.122 222 115.422 222.2 114.822 222.2Z" fill="#4C9BE8"/>
<path d="M232.021 339.5C231.421 339.5 230.721 339.3 230.221 338.8L226.121 334.7C225.121 333.7 225.121 332.1 226.121 331.2C227.121 330.2 228.721 330.2 229.621 331.2L233.721 335.3C234.721 336.3 234.721 337.9 233.721 338.8C233.321 339.2 232.721 339.5 232.021 339.5Z" fill="#4C9BE8"/>
<path d="M110.62 339.5C110.02 339.5 109.32 339.3 108.82 338.8C107.82 337.8 107.82 336.2 108.82 335.3L112.92 331.2C113.92 330.2 115.52 330.2 116.42 331.2C117.42 332.2 117.42 333.8 116.42 334.7L112.32 338.8C111.92 339.2 111.32 339.5 110.62 339.5Z" fill="#4C9BE8"/>
<path d="M227.921 222.2C227.321 222.2 226.621 222 226.121 221.5C225.121 220.5 225.121 218.9 226.121 218L230.221 213.9C231.221 212.9 232.821 212.9 233.721 213.9C234.721 214.9 234.721 216.5 233.721 217.4L229.621 221.5C229.221 222 228.521 222.2 227.921 222.2Z" fill="#4C9BE8"/>
<path d="M171.223 198.3C174.371 198.3 176.923 195.748 176.923 192.6C176.923 189.452 174.371 186.9 171.223 186.9C168.075 186.9 165.523 189.452 165.523 192.6C165.523 195.748 168.075 198.3 171.223 198.3Z" fill="#3734A9"/>
<path d="M171.223 364.5C174.371 364.5 176.923 361.948 176.923 358.8C176.923 355.652 174.371 353.1 171.223 353.1C168.075 353.1 165.523 355.652 165.523 358.8C165.523 361.948 168.075 364.5 171.223 364.5Z" fill="#3734A9"/>
<path d="M88.1219 270C91.3219 270 93.8219 272.6 93.8219 275.7C93.8219 278.9 91.2219 281.4 88.1219 281.4C84.9219 281.4 82.4219 278.8 82.4219 275.7C82.4219 272.6 85.0219 270 88.1219 270Z" fill="#3734A9"/>
<path d="M254.422 270C257.622 270 260.122 272.6 260.122 275.7C260.122 278.9 257.522 281.4 254.422 281.4C251.222 281.4 248.722 278.8 248.722 275.7C248.622 272.6 251.222 270 254.422 270Z" fill="#3734A9"/>
<path d="M206.721 224.2L166.021 272C164.721 273.3 164.021 275.1 164.221 277C164.521 280.5 167.621 283.2 171.121 282.9C173.821 282.7 175.921 280.9 176.721 278.5L208.221 225.3C208.721 224.3 207.421 223.4 206.721 224.2Z" fill="#65DD89"/>
<defs>
<linearGradient id="paint0_linear_391_7195" x1="62.7395" y1="80.479" x2="200.212" y2="80.479" gradientUnits="userSpaceOnUse">
<stop stop-color="#A4DAFF"/>
<stop offset="1" stop-color="#62AFEF"/>
</linearGradient>
<linearGradient id="paint1_linear_391_7195" x1="333.426" y1="314.351" x2="470.898" y2="314.351" gradientUnits="userSpaceOnUse">
<stop stop-color="#A4DAFF"/>
<stop offset="1" stop-color="#62AFEF"/>
</linearGradient>
<linearGradient id="paint2_linear_391_7195" x1="316.291" y1="404.562" x2="316.291" y2="48.1351" gradientUnits="userSpaceOnUse">
<stop stop-color="white"/>
<stop offset="1" stop-color="#E0EAFF"/>
</linearGradient>
<linearGradient id="paint3_linear_391_7195" x1="161.764" y1="85.9924" x2="179.944" y2="85.9924" gradientUnits="userSpaceOnUse">
<stop stop-color="#A4DAFF"/>
<stop offset="1" stop-color="#62AFEF"/>
</linearGradient>
<linearGradient id="paint4_linear_391_7195" x1="191.292" y1="85.9924" x2="279.882" y2="85.9924" gradientUnits="userSpaceOnUse">
<stop stop-color="#A4DAFF"/>
<stop offset="1" stop-color="#62AFEF"/>
</linearGradient>
<linearGradient id="paint5_linear_391_7195" x1="289.937" y1="85.9924" x2="360.547" y2="85.9924" gradientUnits="userSpaceOnUse">
<stop stop-color="#A4DAFF"/>
<stop offset="1" stop-color="#62AFEF"/>
</linearGradient>
<linearGradient id="paint6_linear_391_7195" x1="377.237" y1="85.9924" x2="470.817" y2="85.9924" gradientUnits="userSpaceOnUse">
<stop stop-color="#A4DAFF"/>
<stop offset="1" stop-color="#62AFEF"/>
</linearGradient>
<linearGradient id="paint7_linear_391_7195" x1="161.764" y1="117.384" x2="179.944" y2="117.384" gradientUnits="userSpaceOnUse">
<stop stop-color="#A4DAFF"/>
<stop offset="1" stop-color="#62AFEF"/>
</linearGradient>
<linearGradient id="paint8_linear_391_7195" x1="191.292" y1="117.384" x2="279.882" y2="117.384" gradientUnits="userSpaceOnUse">
<stop stop-color="#A4DAFF"/>
<stop offset="1" stop-color="#62AFEF"/>
</linearGradient>
<linearGradient id="paint9_linear_391_7195" x1="289.937" y1="117.384" x2="317.631" y2="117.384" gradientUnits="userSpaceOnUse">
<stop stop-color="#A4DAFF"/>
<stop offset="1" stop-color="#62AFEF"/>
</linearGradient>
<linearGradient id="paint10_linear_391_7195" x1="326" y1="117.384" x2="470.818" y2="117.384" gradientUnits="userSpaceOnUse">
<stop stop-color="#A4DAFF"/>
<stop offset="1" stop-color="#62AFEF"/>
</linearGradient>
<linearGradient id="paint11_linear_391_7195" x1="191.292" y1="148.776" x2="279.882" y2="148.776" gradientUnits="userSpaceOnUse">
<stop stop-color="#A4DAFF"/>
<stop offset="1" stop-color="#62AFEF"/>
</linearGradient>
<linearGradient id="paint12_linear_391_7195" x1="289.939" y1="148.776" x2="337.6" y2="148.776" gradientUnits="userSpaceOnUse">
<stop stop-color="#A4DAFF"/>
<stop offset="1" stop-color="#62AFEF"/>
</linearGradient>
<linearGradient id="paint13_linear_391_7195" x1="349.82" y1="148.776" x2="470.818" y2="148.776" gradientUnits="userSpaceOnUse">
<stop stop-color="#A4DAFF"/>
<stop offset="1" stop-color="#62AFEF"/>
</linearGradient>
<linearGradient id="paint14_linear_391_7195" x1="230.312" y1="180.169" x2="317.633" y2="180.169" gradientUnits="userSpaceOnUse">
<stop stop-color="#A4DAFF"/>
<stop offset="1" stop-color="#62AFEF"/>
</linearGradient>
<linearGradient id="paint15_linear_391_7195" x1="333.426" y1="180.169" x2="470.816" y2="180.169" gradientUnits="userSpaceOnUse">
<stop stop-color="#A4DAFF"/>
<stop offset="1" stop-color="#62AFEF"/>
</linearGradient>
<linearGradient id="paint16_linear_391_7195" x1="191.292" y1="211.56" x2="279.882" y2="211.56" gradientUnits="userSpaceOnUse">
<stop stop-color="#A4DAFF"/>
<stop offset="1" stop-color="#62AFEF"/>
</linearGradient>
<linearGradient id="paint17_linear_391_7195" x1="289.937" y1="211.56" x2="400.184" y2="211.56" gradientUnits="userSpaceOnUse">
<stop stop-color="#A4DAFF"/>
<stop offset="1" stop-color="#62AFEF"/>
</linearGradient>
<linearGradient id="paint18_linear_391_7195" x1="416.873" y1="211.56" x2="470.816" y2="211.56" gradientUnits="userSpaceOnUse">
<stop stop-color="#A4DAFF"/>
<stop offset="1" stop-color="#62AFEF"/>
</linearGradient>
<linearGradient id="paint19_linear_391_7195" x1="289.939" y1="242.953" x2="352.799" y2="242.953" gradientUnits="userSpaceOnUse">
<stop stop-color="#A4DAFF"/>
<stop offset="1" stop-color="#62AFEF"/>
</linearGradient>
<linearGradient id="paint20_linear_391_7195" x1="365.612" y1="242.953" x2="470.815" y2="242.953" gradientUnits="userSpaceOnUse">
<stop stop-color="#A4DAFF"/>
<stop offset="1" stop-color="#62AFEF"/>
</linearGradient>
<linearGradient id="paint21_linear_391_7195" x1="257.131" y1="274.345" x2="317.63" y2="274.345" gradientUnits="userSpaceOnUse">
<stop stop-color="#A4DAFF"/>
<stop offset="1" stop-color="#62AFEF"/>
</linearGradient>
<linearGradient id="paint22_linear_391_7195" x1="332.235" y1="274.345" x2="470.817" y2="274.345" gradientUnits="userSpaceOnUse">
<stop stop-color="#A4DAFF"/>
<stop offset="1" stop-color="#62AFEF"/>
</linearGradient>
</defs>
</svg>
