<svg width="124" height="23" viewBox="0 0 124 23" fill="none" xmlns="http://www.w3.org/2000/svg">
<g clip-path="url(#clip0_412_4807)">
<path d="M11.0547 16.4654L16.665 19.8516L15.1762 13.4697L20.1328 9.17571L13.6056 8.62195L11.0547 2.60315L8.50373 8.62195L1.97656 9.17571L6.93322 13.4697L5.44441 19.8516L11.0547 16.4654Z" fill="#4F46BA"/>
</g>
<g clip-path="url(#clip1_412_4807)">
<path d="M36.4727 16.4654L42.0829 19.8516L40.5941 13.4697L45.5508 9.17571L39.0236 8.62195L36.4727 2.60315L33.9217 8.62195L27.3945 9.17571L32.3512 13.4697L30.8624 19.8516L36.4727 16.4654Z" fill="#4F46BA"/>
</g>
<g clip-path="url(#clip2_412_4807)">
<path d="M61.8906 16.4654L67.5009 19.8516L66.0121 13.4697L70.9687 9.17571L64.4416 8.62195L61.8906 2.60315L59.3397 8.62195L52.8125 9.17571L57.7692 13.4697L56.2803 19.8516L61.8906 16.4654Z" fill="#4F46BA"/>
</g>
<g clip-path="url(#clip3_412_4807)">
<path d="M87.3125 16.4654L92.9228 19.8516L91.434 13.4697L96.3906 9.17571L89.8635 8.62195L87.3125 2.60315L84.7615 8.62195L78.2344 9.17571L83.191 13.4697L81.7022 19.8516L87.3125 16.4654Z" fill="#4F46BA"/>
</g>
<g clip-path="url(#clip4_412_4807)">
<path d="M121.805 9.17571L115.278 8.61287L112.727 2.60315L110.176 8.62195L103.648 9.17571L108.605 13.4697L107.116 19.8516L112.727 16.4654L118.337 19.8516L116.857 13.4697L121.805 9.17571ZM112.727 14.7678L109.313 16.8286L110.221 12.9431L107.207 10.3286L111.183 9.98367L112.727 6.32518L114.279 9.99274L118.255 10.3377L115.241 12.9522L116.149 16.8377L112.727 14.7678Z" fill="#4F46BA"/>
</g>
<defs>
<clipPath id="clip0_412_4807">
<rect width="21.7875" height="21.7875" fill="white" transform="translate(0.160156 0.787506)"/>
</clipPath>
<clipPath id="clip1_412_4807">
<rect width="21.7875" height="21.7875" fill="white" transform="translate(25.5781 0.787506)"/>
</clipPath>
<clipPath id="clip2_412_4807">
<rect width="21.7875" height="21.7875" fill="white" transform="translate(50.9961 0.787506)"/>
</clipPath>
<clipPath id="clip3_412_4807">
<rect width="21.7875" height="21.7875" fill="white" transform="translate(76.418 0.787506)"/>
</clipPath>
<clipPath id="clip4_412_4807">
<rect width="21.7875" height="21.7875" fill="white" transform="translate(101.836 0.787506)"/>
</clipPath>
</defs>
</svg>
