<svg width="125" height="23" viewBox="0 0 125 23" fill="none" xmlns="http://www.w3.org/2000/svg">
<g clip-path="url(#clip0_412_4786)">
<path d="M11.457 16.4654L17.0673 19.8516L15.5785 13.4696L20.5352 9.17568L14.008 8.62192L11.457 2.60312L8.90608 8.62192L2.37891 9.17568L7.33556 13.4696L5.84675 19.8516L11.457 16.4654Z" fill="#4F46BA"/>
</g>
<g clip-path="url(#clip1_412_4786)">
<path d="M36.875 16.4654L42.4853 19.8516L40.9965 13.4696L45.9531 9.17568L39.426 8.62192L36.875 2.60312L34.324 8.62192L27.7969 9.17568L32.7535 13.4696L31.2647 19.8516L36.875 16.4654Z" fill="#4F46BA"/>
</g>
<g clip-path="url(#clip2_412_4786)">
<path d="M62.2891 16.4654L67.8993 19.8516L66.4105 13.4696L71.3672 9.17568L64.84 8.62192L62.2891 2.60312L59.7381 8.62192L53.2109 9.17568L58.1676 13.4696L56.6788 19.8516L62.2891 16.4654Z" fill="#4F46BA"/>
</g>
<g clip-path="url(#clip3_412_4786)">
<path d="M96.793 9.17568L90.2658 8.61284L87.7148 2.60312L85.1639 8.62192L78.6367 9.17568L83.5934 13.4696L82.1046 19.8516L87.7148 16.4654L93.3251 19.8516L91.8454 13.4696L96.793 9.17568ZM87.7148 14.7678V6.32515L89.2672 9.99271L93.2434 10.3377L90.2295 12.9522L91.1373 16.8376L87.7148 14.7678Z" fill="#4F46BA"/>
</g>
<path d="M122.211 9.17568L115.684 8.61284L113.133 2.60312L110.582 8.62192L104.055 9.17568L109.011 13.4696L107.523 19.8516L113.133 16.4654L118.743 19.8516L117.263 13.4696L122.211 9.17568ZM113.133 14.7678L109.719 16.8285L110.627 12.9431L107.613 10.3286L111.59 9.98363L113.133 6.32515L114.685 9.99271L118.661 10.3377L115.647 12.9522L116.555 16.8376L113.133 14.7678Z" fill="#4F46BA"/>
<defs>
<clipPath id="clip0_412_4786">
<rect width="21.7875" height="21.7875" fill="white" transform="translate(0.5625 0.787476)"/>
</clipPath>
<clipPath id="clip1_412_4786">
<rect width="21.7875" height="21.7875" fill="white" transform="translate(25.9805 0.787476)"/>
</clipPath>
<clipPath id="clip2_412_4786">
<rect width="21.7875" height="21.7875" fill="white" transform="translate(51.3984 0.787476)"/>
</clipPath>
<clipPath id="clip3_412_4786">
<rect width="21.7875" height="21.7875" fill="white" transform="translate(76.8203 0.787476)"/>
</clipPath>
</defs>
</svg>
