<svg width="749" height="655" viewBox="0 0 749 655" fill="none" xmlns="http://www.w3.org/2000/svg">
<path d="M731.696 129.06L708.742 125.09C706.012 115.04 702.042 105.486 696.955 96.5528L710.355 77.4452C715.318 70.497 714.449 60.9432 708.37 54.8635L694.597 41.0911C688.518 35.1355 678.964 34.5151 672.016 39.4781L652.908 52.8783C643.975 47.6671 634.297 43.6967 624.371 41.0911L620.4 17.6409C618.912 9.32784 611.839 3.12408 603.402 3H583.55C574.989 3 567.668 9.20376 566.18 17.6409L562.209 40.4707C552.159 43.2004 542.605 47.1708 533.672 52.2579L514.564 39.4781C507.616 34.5151 498.062 35.3836 491.983 41.4633L478.21 55.2357C472.13 61.3154 471.262 70.8692 476.225 77.8174L489.625 96.925C484.414 105.858 480.443 115.536 477.838 125.462L455.008 129.433C446.571 130.922 440.367 138.242 440.367 146.803V166.283C440.367 174.844 446.571 182.165 455.008 183.654L477.838 187.624C480.568 197.674 484.538 207.228 489.625 216.161L476.225 235.269C471.262 242.217 472.13 251.771 478.21 257.851L491.983 271.623C498.062 277.703 507.616 278.571 514.564 273.608L533.672 260.208C542.605 265.419 552.283 269.39 562.209 271.995L566.18 294.825C567.668 303.262 574.989 309.466 583.55 309.466H603.278C611.839 309.466 619.16 303.262 620.649 294.825L624.619 271.995C634.669 269.266 644.223 265.295 653.156 260.208L671.768 273.236C678.716 278.199 688.27 277.33 694.349 271.251L708.122 257.478C714.201 251.399 715.07 241.845 710.107 234.897L696.707 215.665C701.918 206.732 705.888 197.054 708.494 187.128L731.448 183.157C739.885 181.668 746.089 174.348 746.089 165.787V146.307C746.337 137.87 740.133 130.549 731.696 129.06ZM593.228 208.593C564.194 208.593 540.744 185.143 540.744 156.109C540.744 127.075 564.194 103.625 593.228 103.625C622.262 103.625 645.712 127.075 645.712 156.109C645.712 156.233 645.712 156.357 645.712 156.357C645.588 185.267 622.137 208.593 593.228 208.593Z" fill="#B8DFFF"/>
<path d="M294.329 472.004L271.375 468.034C268.645 457.984 264.675 448.43 259.588 439.497L272.988 420.389C277.951 413.441 277.082 403.887 271.003 397.807L257.23 384.035C251.151 378.079 241.597 377.459 234.649 382.422L215.541 395.822C206.608 390.611 196.93 386.641 187.004 384.035L183.033 360.585C181.544 352.272 174.472 346.068 166.035 345.944H146.183C137.622 345.944 130.301 352.148 128.812 360.585L124.842 383.415C114.792 386.144 105.238 390.115 96.3046 395.202L77.3211 382.422C70.3729 377.459 60.8191 378.328 54.7394 384.407L40.843 398.055C34.7633 404.135 33.8948 413.689 38.8578 420.637L52.2579 439.745C47.0467 448.678 43.0763 458.356 40.4707 468.282L17.6409 472.252C9.20376 473.741 3 481.062 3 489.623V509.103C3 517.664 9.20376 524.985 17.6409 526.473L40.4707 530.444C43.2004 540.494 47.1708 550.048 52.2579 558.981L38.8578 578.089C33.8948 585.037 34.7633 594.591 40.843 600.67L54.6153 614.443C60.695 620.522 70.2488 621.391 77.197 616.428L96.3046 603.028C105.238 608.239 114.916 612.209 124.842 614.815L128.812 637.645C130.301 646.082 137.622 652.286 146.183 652.286H165.911C174.472 652.286 181.792 646.082 183.281 637.645L187.252 614.815C197.302 612.085 206.856 608.115 215.789 603.028L234.4 616.056C241.349 621.019 250.902 620.15 256.982 614.071L270.754 600.298C276.834 594.219 277.703 584.665 272.74 577.717L259.34 558.485C264.551 549.551 268.521 539.874 271.127 529.948L294.081 525.977C302.518 524.488 308.722 517.168 308.722 508.607V489.127C308.97 480.814 302.766 473.493 294.329 472.004ZM155.861 551.537C126.827 551.537 103.377 528.086 103.377 499.053C103.377 470.019 126.827 446.569 155.861 446.569C184.894 446.569 208.345 470.019 208.345 499.053C208.345 499.177 208.345 499.301 208.345 499.301C208.221 528.21 184.77 551.537 155.861 551.537Z" fill="#B8DFFF"/>
<path d="M731.696 129.06L708.742 125.09C706.012 115.04 702.042 105.486 696.955 96.5528L710.355 77.4452C715.318 70.497 714.449 60.9432 708.37 54.8635L694.597 41.0911C688.518 35.1355 678.964 34.5151 672.016 39.4781L652.908 52.8783C643.975 47.6671 634.297 43.6967 624.371 41.0911L620.4 17.6409C618.912 9.32784 611.839 3.12408 603.402 3H583.55C574.989 3 567.668 9.20376 566.18 17.6409L562.209 40.4707C552.159 43.2004 542.605 47.1708 533.672 52.2579L514.564 39.4781C507.616 34.5151 498.062 35.3836 491.983 41.4633L478.21 55.2357C472.13 61.3154 471.262 70.8692 476.225 77.8174L489.625 96.925C484.414 105.858 480.443 115.536 477.838 125.462L455.008 129.433C446.571 130.922 440.367 138.242 440.367 146.803V166.283C440.367 174.844 446.571 182.165 455.008 183.654L477.838 187.624C480.568 197.674 484.538 207.228 489.625 216.161L476.225 235.269C471.262 242.217 472.13 251.771 478.21 257.851L491.983 271.623C498.062 277.703 507.616 278.571 514.564 273.608L533.672 260.208C542.605 265.419 552.283 269.39 562.209 271.995L566.18 294.825C567.668 303.262 574.989 309.466 583.55 309.466H603.278C611.839 309.466 619.16 303.262 620.649 294.825L624.619 271.995C634.669 269.266 644.223 265.295 653.156 260.208L671.768 273.236C678.716 278.199 688.27 277.33 694.349 271.251L708.122 257.478C714.201 251.399 715.07 241.845 710.107 234.897L696.707 215.665C701.918 206.732 705.888 197.054 708.494 187.128L731.448 183.157C739.885 181.668 746.089 174.348 746.089 165.787V146.307C746.337 137.87 740.133 130.549 731.696 129.06ZM593.228 208.593C564.194 208.593 540.744 185.143 540.744 156.109C540.744 127.075 564.194 103.625 593.228 103.625C622.262 103.625 645.712 127.075 645.712 156.109C645.712 156.233 645.712 156.357 645.712 156.357C645.588 185.267 622.137 208.593 593.228 208.593Z" stroke="#4C9BE8" stroke-width="5" stroke-miterlimit="10" stroke-linejoin="round"/>
<path d="M294.329 472.004L271.375 468.034C268.645 457.984 264.675 448.43 259.588 439.497L272.988 420.389C277.951 413.441 277.082 403.887 271.003 397.807L257.23 384.035C251.151 378.079 241.597 377.459 234.649 382.422L215.541 395.822C206.608 390.611 196.93 386.641 187.004 384.035L183.033 360.585C181.544 352.272 174.472 346.068 166.035 345.944H146.183C137.622 345.944 130.301 352.148 128.812 360.585L124.842 383.415C114.792 386.144 105.238 390.115 96.3046 395.202L77.3211 382.422C70.3729 377.459 60.8191 378.328 54.7394 384.407L40.843 398.055C34.7633 404.135 33.8948 413.689 38.8578 420.637L52.2579 439.745C47.0467 448.678 43.0763 458.356 40.4707 468.282L17.6409 472.252C9.20376 473.741 3 481.062 3 489.623V509.103C3 517.664 9.20376 524.985 17.6409 526.473L40.4707 530.444C43.2004 540.494 47.1708 550.048 52.2579 558.981L38.8578 578.089C33.8948 585.037 34.7633 594.591 40.843 600.67L54.6153 614.443C60.695 620.522 70.2488 621.391 77.197 616.428L96.3046 603.028C105.238 608.239 114.916 612.209 124.842 614.815L128.812 637.645C130.301 646.082 137.622 652.286 146.183 652.286H165.911C174.472 652.286 181.792 646.082 183.281 637.645L187.252 614.815C197.302 612.085 206.856 608.115 215.789 603.028L234.4 616.056C241.349 621.019 250.902 620.15 256.982 614.071L270.754 600.298C276.834 594.219 277.703 584.665 272.74 577.717L259.34 558.485C264.551 549.551 268.521 539.874 271.127 529.948L294.081 525.977C302.518 524.488 308.722 517.168 308.722 508.607V489.127C308.97 480.814 302.766 473.493 294.329 472.004ZM155.861 551.537C126.827 551.537 103.377 528.086 103.377 499.053C103.377 470.019 126.827 446.569 155.861 446.569C184.894 446.569 208.345 470.019 208.345 499.053C208.345 499.177 208.345 499.301 208.345 499.301C208.221 528.21 184.77 551.537 155.861 551.537Z" stroke="#4C9BE8" stroke-width="5" stroke-miterlimit="10" stroke-linejoin="round"/>
<path d="M673.38 101.888H80.1758V70.869C80.1758 67.7672 82.6573 65.2856 85.7592 65.2856H667.92C671.022 65.2856 673.504 67.7672 673.504 70.869V101.888H673.38Z" fill="url(#paint0_linear_402_7139)"/>
<path d="M667.796 590.124H85.7592C82.6573 590.124 80.1758 587.642 80.1758 584.541V101.888H673.38V584.417C673.38 587.642 670.898 590.124 667.796 590.124Z" fill="#00355C"/>
<path d="M160.327 143.701H154.371V153.379H160.327V143.701Z" fill="#B8D2FF"/>
<path d="M160.199 160.452H151.266V170.13H160.199V160.452Z" fill="#B8D2FF"/>
<path d="M160.208 177.326H153.012V187.004H160.208V177.326Z" fill="#B8D2FF"/>
<path d="M160.327 194.201H152.262V203.879H160.327V194.201Z" fill="#B8D2FF"/>
<path d="M160.202 211.074H150.648V220.752H160.202V211.074Z" fill="#B8D2FF"/>
<path d="M160.202 227.824H150.648V237.502H160.202V227.824Z" fill="#B8D2FF"/>
<path d="M160.327 244.699H151.766V254.377H160.327V244.699Z" fill="#B8D2FF"/>
<path d="M160.211 261.573H148.672V271.251H160.211V261.573Z" fill="#B8D2FF"/>
<path d="M160.211 278.323H148.672V288.001H160.211V278.323Z" fill="#B8D2FF"/>
<path d="M160.211 295.197H148.672V304.875H160.211V295.197Z" fill="#B8D2FF"/>
<path d="M160.211 312.072H148.672V321.75H160.211V312.072Z" fill="#B8D2FF"/>
<path d="M160.206 328.945H147.426V338.623H160.206V328.945Z" fill="#B8D2FF"/>
<path d="M160.331 345.696H147.055V355.374H160.331V345.696Z" fill="#B8D2FF"/>
<path d="M160.206 362.57H147.426V372.248H160.206V362.57Z" fill="#B8D2FF"/>
<path d="M160.211 379.444H148.672V389.122H160.211V379.444Z" fill="#B8D2FF"/>
<path d="M160.211 396.319H148.672V405.997H160.211V396.319Z" fill="#B8D2FF"/>
<path d="M160.201 413.068H147.297V422.746H160.201V413.068Z" fill="#B8D2FF"/>
<path d="M160.201 429.943H147.297V439.621H160.201V429.943Z" fill="#B8D2FF"/>
<path d="M160.201 446.818H147.297V456.496H160.201V446.818Z" fill="#B8D2FF"/>
<path d="M160.201 463.566H147.297V473.244H160.201V463.566Z" fill="#B8D2FF"/>
<path d="M160.197 480.443H147.293V490.121H160.197V480.443Z" fill="#B8D2FF"/>
<path d="M160.197 497.316H147.293V506.994H160.197V497.316Z" fill="#B8D2FF"/>
<path d="M160.197 514.189H147.293V523.867H160.197V514.189Z" fill="#B8D2FF"/>
<path d="M160.197 530.94H147.293V540.618H160.197V530.94Z" fill="#B8D2FF"/>
<path d="M160.197 547.815H147.293V557.493H160.197V547.815Z" fill="#B8D2FF"/>
<path d="M279.939 152.263H183.781C181.672 152.263 180.059 150.526 180.059 148.541C180.059 146.431 181.796 144.818 183.781 144.818H279.939C282.048 144.818 283.661 146.555 283.661 148.541C283.661 150.526 282.048 152.263 279.939 152.263Z" fill="#E25663"/>
<path d="M258.474 169.137H183.781C181.672 169.137 180.059 167.4 180.059 165.415C180.059 163.305 181.796 161.692 183.781 161.692H258.474C260.583 161.692 262.196 163.429 262.196 165.415C262.196 167.4 260.583 169.137 258.474 169.137Z" fill="#E25663"/>
<path d="M287.755 185.887H213.062C210.953 185.887 209.34 184.15 209.34 182.165C209.34 180.056 211.077 178.443 213.062 178.443H287.755C289.865 178.443 291.478 180.18 291.478 182.165C291.602 184.274 289.865 185.887 287.755 185.887Z" fill="#E25663"/>
<path d="M319.021 202.761H244.328C242.218 202.761 240.605 201.024 240.605 199.039C240.605 196.93 242.343 195.317 244.328 195.317H319.021C321.13 195.317 322.743 197.054 322.743 199.039C322.743 201.148 321.13 202.761 319.021 202.761Z" fill="#E25663"/>
<path d="M419.275 202.761H344.582C342.472 202.761 340.859 201.024 340.859 199.039C340.859 196.93 342.596 195.317 344.582 195.317H419.275C421.384 195.317 422.997 197.054 422.997 199.039C422.997 201.148 421.384 202.761 419.275 202.761Z" fill="#FFB84C"/>
<path d="M514.313 219.636H324.23C322.121 219.636 320.508 217.899 320.508 215.914C320.508 213.928 322.245 212.191 324.23 212.191H514.313C516.423 212.191 518.036 213.928 518.036 215.914C518.036 217.899 516.423 219.636 514.313 219.636Z" fill="#FFB84C"/>
<path d="M304.256 219.636H244.328C242.218 219.636 240.605 217.899 240.605 215.914C240.605 213.928 242.343 212.191 244.328 212.191H304.256C306.365 212.191 307.978 213.928 307.978 215.914C307.978 217.899 306.241 219.636 304.256 219.636Z" fill="#E25663"/>
<path d="M419.272 270.134H324.23C322.121 270.134 320.508 268.397 320.508 266.412C320.508 264.302 322.245 262.689 324.23 262.689H419.272C421.381 262.689 422.994 264.427 422.994 266.412C422.994 268.397 421.381 270.134 419.272 270.134Z" fill="#FFB84C"/>
<path d="M304.256 270.134H244.328C242.218 270.134 240.605 268.397 240.605 266.412C240.605 264.302 242.343 262.689 244.328 262.689H304.256C306.365 262.689 307.978 264.427 307.978 266.412C307.978 268.397 306.241 270.134 304.256 270.134Z" fill="#E25663"/>
<path d="M304.256 287.008H244.328C242.218 287.008 240.605 285.271 240.605 283.286C240.605 281.177 242.343 279.564 244.328 279.564H304.256C306.365 279.564 307.978 281.301 307.978 283.286C307.978 285.271 306.241 287.008 304.256 287.008Z" fill="#E25663"/>
<path d="M362.82 303.759H244.328C242.218 303.759 240.605 302.022 240.605 300.037C240.605 297.927 242.343 296.314 244.328 296.314H362.82C364.929 296.314 366.542 298.052 366.542 300.037C366.542 302.146 364.929 303.759 362.82 303.759Z" fill="#E25663"/>
<path d="M427.339 320.633H244.328C242.218 320.633 240.605 318.896 240.605 316.911C240.605 314.801 242.343 313.188 244.328 313.188H427.339C429.448 313.188 431.061 314.926 431.061 316.911C431.061 319.02 429.324 320.633 427.339 320.633Z" fill="#E25663"/>
<path d="M477.716 337.507H277.707C275.597 337.507 273.984 335.77 273.984 333.785C273.984 331.675 275.721 330.062 277.707 330.062H477.716C479.825 330.062 481.438 331.8 481.438 333.785C481.562 335.77 479.825 337.507 477.716 337.507Z" fill="#E25663"/>
<path d="M337.635 354.381H277.707C275.597 354.381 273.984 352.644 273.984 350.659C273.984 348.55 275.721 346.937 277.707 346.937H337.635C339.744 346.937 341.357 348.674 341.357 350.659C341.357 352.644 339.744 354.381 337.635 354.381Z" fill="#E25663"/>
<path d="M415.922 371.131H259.339C257.23 371.131 255.617 369.394 255.617 367.409C255.617 365.3 257.354 363.687 259.339 363.687H415.922C418.032 363.687 419.645 365.424 419.645 367.409C419.645 369.518 417.908 371.131 415.922 371.131Z" fill="#E25663"/>
<path d="M319.268 388.006H259.339C257.23 388.006 255.617 386.268 255.617 384.283C255.617 382.174 257.354 380.561 259.339 380.561H319.268C321.377 380.561 322.99 382.298 322.99 384.283C322.99 386.393 321.377 388.006 319.268 388.006Z" fill="#E25663"/>
<path d="M304.256 472.253H244.328C242.218 472.253 240.605 470.516 240.605 468.531C240.605 466.422 242.343 464.809 244.328 464.809H304.256C306.365 464.809 307.978 466.546 307.978 468.531C307.978 470.516 306.241 472.253 304.256 472.253Z" fill="#E25663"/>
<path d="M458.482 404.88H244.328C242.218 404.88 240.605 403.143 240.605 401.158C240.605 399.049 242.343 397.436 244.328 397.436H458.606C460.715 397.436 462.328 399.173 462.328 401.158C462.328 403.143 460.591 404.88 458.482 404.88Z" fill="#E25663"/>
<path d="M419.274 421.754H244.328C242.218 421.754 240.605 420.017 240.605 418.032C240.605 415.923 242.343 414.31 244.328 414.31H419.274C421.383 414.31 422.996 416.047 422.996 418.032C422.996 420.017 421.383 421.754 419.274 421.754Z" fill="#E25663"/>
<path d="M589.752 522.751H494.711C492.601 522.751 490.988 521.014 490.988 519.029C490.988 516.92 492.725 515.307 494.711 515.307H589.752C591.862 515.307 593.474 517.044 593.474 519.029C593.474 521.014 591.862 522.751 589.752 522.751Z" fill="#FFB84C"/>
<path d="M474.736 522.751H244.328C242.218 522.751 240.605 521.014 240.605 519.029C240.605 516.92 242.343 515.307 244.328 515.307H474.736C476.845 515.307 478.458 517.044 478.458 519.029C478.458 521.014 476.721 522.751 474.736 522.751Z" fill="#E25663"/>
<path d="M254.749 539.625H211.199C209.09 539.625 207.477 537.888 207.477 535.903C207.477 533.794 209.214 532.181 211.199 532.181H254.749C256.859 532.181 258.472 533.918 258.472 535.903C258.472 537.888 256.734 539.625 254.749 539.625Z" fill="#E25663"/>
<path d="M231.798 556.375H183.781C181.672 556.375 180.059 554.638 180.059 552.653C180.059 550.544 181.796 548.931 183.781 548.931H231.798C233.907 548.931 235.52 550.668 235.52 552.653C235.644 554.762 233.907 556.375 231.798 556.375Z" fill="#E25663"/>
<path d="M469.524 236.509H244.328C242.218 236.509 240.605 234.772 240.605 232.787C240.605 230.678 242.343 229.065 244.328 229.065H469.648C471.758 229.065 473.371 230.802 473.371 232.787C473.247 234.772 471.634 236.509 469.524 236.509Z" fill="#E25663"/>
<path d="M298.671 253.259H206.359C204.25 253.259 202.637 251.522 202.637 249.537C202.637 247.428 204.374 245.815 206.359 245.815H298.671C300.78 245.815 302.393 247.552 302.393 249.537C302.393 251.646 300.78 253.259 298.671 253.259Z" fill="#E25663"/>
<path d="M602.782 169.137H576.726C574.617 169.137 573.004 167.4 573.004 165.415C573.004 163.305 574.741 161.692 576.726 161.692H602.782C604.891 161.692 606.504 163.429 606.504 165.415C606.504 167.4 604.891 169.137 602.782 169.137Z" fill="#65DD89"/>
<path d="M514.317 236.509H488.261C486.152 236.509 484.539 234.772 484.539 232.787C484.539 230.678 486.276 229.065 488.261 229.065H514.317C516.426 229.065 518.039 230.802 518.039 232.787C518.039 234.772 516.426 236.509 514.317 236.509Z" fill="#65DD89"/>
<path d="M464.684 320.633H438.629C436.519 320.633 434.906 318.896 434.906 316.911C434.906 314.801 436.643 313.188 438.629 313.188H464.684C466.794 313.188 468.407 314.926 468.407 316.911C468.407 319.02 466.794 320.633 464.684 320.633Z" fill="#65DD89"/>
<path d="M469.524 438.505H244.328C242.218 438.505 240.605 436.768 240.605 434.782C240.605 432.673 242.343 431.06 244.328 431.06H469.648C471.758 431.06 473.371 432.797 473.371 434.782C473.247 436.892 471.634 438.505 469.524 438.505Z" fill="#E25663"/>
<path d="M514.317 438.505H488.261C486.152 438.505 484.539 436.768 484.539 434.782C484.539 432.673 486.276 431.06 488.261 431.06H514.317C516.426 431.06 518.039 432.797 518.039 434.782C518.039 436.892 516.426 438.505 514.317 438.505Z" fill="#65DD89"/>
<path d="M551.664 169.137H273.859C271.75 169.137 270.137 167.4 270.137 165.415C270.137 163.305 271.874 161.692 273.859 161.692H551.664C553.773 161.692 555.386 163.429 555.386 165.415C555.386 167.4 553.773 169.137 551.664 169.137Z" fill="#4C9BE8"/>
<path d="M595.089 354.381H362.82C360.711 354.381 359.098 352.644 359.098 350.659C359.098 348.55 360.835 346.937 362.82 346.937H594.965C597.074 346.937 598.687 348.674 598.687 350.659C598.811 352.644 597.074 354.381 595.089 354.381Z" fill="#4C9BE8"/>
<path d="M501.286 472.253H324.23C322.121 472.253 320.508 470.516 320.508 468.531C320.508 466.422 322.245 464.809 324.23 464.809H501.286C503.395 464.809 505.008 466.546 505.008 468.531C505.008 470.516 503.395 472.253 501.286 472.253Z" fill="#4C9BE8"/>
<path d="M659.234 515.431C657.125 515.431 655.512 513.818 655.512 511.709V333.909C655.512 331.8 657.125 330.187 659.234 330.187C661.343 330.187 662.956 331.8 662.956 333.909V511.709C662.956 513.694 661.219 515.431 659.234 515.431Z" fill="#004772"/>
<path d="M106.977 90.969C111.02 90.969 114.297 87.6915 114.297 83.6486C114.297 79.6056 111.02 76.3281 106.977 76.3281C102.934 76.3281 99.6562 79.6056 99.6562 83.6486C99.6562 87.6915 102.934 90.969 106.977 90.969Z" fill="#E25663"/>
<path d="M127.074 90.969C131.117 90.969 134.395 87.6915 134.395 83.6486C134.395 79.6056 131.117 76.3281 127.074 76.3281C123.031 76.3281 119.754 79.6056 119.754 83.6486C119.754 87.6915 123.031 90.969 127.074 90.969Z" fill="#FFB84C"/>
<path d="M147.176 90.969C151.219 90.969 154.496 87.6915 154.496 83.6486C154.496 79.6056 151.219 76.3281 147.176 76.3281C143.133 76.3281 139.855 79.6056 139.855 83.6486C139.855 87.6915 143.133 90.969 147.176 90.969Z" fill="#65DD89"/>
<path d="M75.8328 262.69C102.695 262.69 124.47 240.914 124.47 214.052C124.47 187.19 102.695 165.415 75.8328 165.415C48.9711 165.415 27.1953 187.19 27.1953 214.052C27.1953 240.914 48.9711 262.69 75.8328 262.69Z" fill="#4C9BE8"/>
<path d="M67.3984 230.058L79.3097 197.922H84.3967L72.6096 230.058H67.3984Z" fill="white"/>
<path d="M42.832 211.447L62.4359 201.521V206.98L48.2913 213.804L62.4359 220.876V226.336L42.832 216.161V211.447Z" fill="white"/>
<path d="M108.838 216.534L89.2344 226.46V221L103.379 214.176L89.2344 206.98V201.521L108.838 211.695V216.534Z" fill="white"/>
<path d="M673.384 564.068C700.245 564.068 722.021 542.292 722.021 515.431C722.021 488.569 700.245 466.793 673.384 466.793C646.522 466.793 624.746 488.569 624.746 515.431C624.746 542.292 646.522 564.068 673.384 564.068Z" fill="#65DD89"/>
<path d="M664.949 531.56L676.86 499.425H681.948L670.16 531.56H664.949Z" fill="white"/>
<path d="M640.379 512.949L659.983 503.023V508.483L645.838 515.307L659.983 522.379V527.838L640.379 517.664V512.949Z" fill="white"/>
<path d="M706.385 517.912L686.781 527.838V522.379L700.926 515.555L686.781 508.483V503.023L706.385 513.198V517.912Z" fill="white"/>
<defs>
<linearGradient id="paint0_linear_402_7139" x1="376.755" y1="57.3963" x2="376.755" y2="100.984" gradientUnits="userSpaceOnUse">
<stop stop-color="white"/>
<stop offset="1" stop-color="#E0EAFF"/>
</linearGradient>
</defs>
</svg>
