<svg width="203" height="57" viewBox="0 0 203 57" fill="none" xmlns="http://www.w3.org/2000/svg">
<path fill-rule="evenodd" clip-rule="evenodd" d="M22.7954 19.3688H44.7518V0.945312H1.24219V1.11431L22.7954 19.3688Z" fill="#B3B3B3"/>
<path fill-rule="evenodd" clip-rule="evenodd" d="M22.8002 19.3687H0.84375V37.7922H44.3534V37.6225L22.8002 19.3687Z" fill="#B3B3B3"/>
<path fill-rule="evenodd" clip-rule="evenodd" d="M0.84375 37.7915H22.5981V56.3856L0.84375 37.7915Z" fill="#D5D5D5"/>
<path d="M74.6464 37.7421V27.6377H87.7441V22.8656H74.6464V16.1585H88.798V11.3428H68.2734V37.7421H74.6464Z" fill="#B3B3B3"/>
<path d="M105.177 18.437C104.826 18.2647 103.872 18.0933 102.819 18.0933C100.611 18.0933 98.7534 19.0387 97.8006 20.4144V18.5227H91.5781V37.7418H97.8006V25.8323C98.2523 24.0688 99.9579 23.1234 102.066 23.1234C103.22 23.1234 104.324 23.3381 105.177 23.7684V18.437Z" fill="#B3B3B3"/>
<path d="M125.897 37.7418V25.4878C125.897 20.888 122.434 18.0933 116.463 18.0933C111.344 18.0933 107.681 20.759 107.028 24.2411H112.95C113.452 23.1234 114.506 22.4351 116.262 22.4351C118.771 22.4351 119.925 23.7684 119.925 25.4021V26.8211C119.022 26.2618 116.764 25.7033 114.807 25.7033C109.94 25.7033 106.125 28.1968 106.125 31.8512C106.125 35.8501 109.939 38.0855 114.455 38.0855C116.915 38.0855 119.172 37.3548 119.925 36.7098V37.7418H125.897ZM119.925 32.4962C119.373 33.5281 117.668 34.1731 115.861 34.1731C113.904 34.1731 111.897 33.4849 111.897 31.8087C111.897 30.1742 113.904 29.4435 115.861 29.4435C117.668 29.4435 119.373 30.0885 119.925 31.1204V32.4962Z" fill="#B3B3B3"/>
<path d="M147.861 20.5434C146.606 19.1244 144.498 18.0933 141.838 18.0933C139.33 18.0933 137.272 18.9097 136.169 20.114V18.5227H129.945V37.7418H136.169V25.3588C136.57 23.7251 138.076 22.8654 139.681 22.8654C141.838 22.8654 142.843 24.2411 142.843 26.3051V37.7418H149.115V25.3588C149.517 23.7251 150.972 22.8654 152.578 22.8654C154.735 22.8654 155.789 24.2411 155.789 26.3051V37.7418H162.011V25.1873C162.011 20.8447 159.252 18.0933 154.635 18.0933C151.473 18.0933 149.316 19.1677 147.861 20.5434Z" fill="#B3B3B3"/>
<path d="M179.835 31.4642C179.334 33.0979 177.778 33.8719 175.671 33.8719C172.91 33.8719 171.004 32.1524 170.803 29.272H185.757V27.6375C185.757 22.0057 182.144 18.0933 175.57 18.0933C169.298 18.0933 164.781 22.3494 164.781 28.1535C164.781 34.0874 169.147 38.1721 175.671 38.1721C181.291 38.1721 184.804 35.5488 185.607 31.4642H179.835ZM175.621 22.4351C178.18 22.4351 179.585 24.0264 179.635 26.0471H170.953C171.506 23.6827 173.212 22.4351 175.621 22.4351Z" fill="#B3B3B3"/>
<path d="M202.302 18.437C201.951 18.2647 200.997 18.0933 199.944 18.0933C197.736 18.0933 195.879 19.0387 194.926 20.4144V18.5227H188.703V37.7418H194.926V25.8323C195.377 24.0688 197.084 23.1234 199.191 23.1234C200.346 23.1234 201.449 23.3381 202.302 23.7684V18.437Z" fill="#B3B3B3"/>
</svg>
