<svg width="119" height="19" viewBox="0 0 119 19" fill="none" xmlns="http://www.w3.org/2000/svg">
<path d="M15.75 0.449999V18H11.475V10.775H4.825V18H0.55V0.449999H4.825V7.325H11.475V0.449999H15.75ZM29.7611 14.9H23.2111L22.1611 18H17.6861L24.0361 0.449999H28.9861L35.3361 18H30.8111L29.7611 14.9ZM28.6611 11.6L26.4861 5.175L24.3361 11.6H28.6611ZM52.9688 18H48.6938L41.5438 7.175V18H37.2688V0.449999H41.5438L48.6938 11.325V0.449999H52.9688V18ZM62.6426 0.449999C64.4926 0.449999 66.1092 0.816666 67.4926 1.55C68.8759 2.28333 69.9426 3.31667 70.6926 4.65C71.4592 5.96667 71.8426 7.49167 71.8426 9.225C71.8426 10.9417 71.4592 12.4667 70.6926 13.8C69.9426 15.1333 68.8676 16.1667 67.4676 16.9C66.0842 17.6333 64.4759 18 62.6426 18H56.0676V0.449999H62.6426ZM62.3676 14.3C63.9842 14.3 65.2426 13.8583 66.1426 12.975C67.0426 12.0917 67.4926 10.8417 67.4926 9.225C67.4926 7.60833 67.0426 6.35 66.1426 5.45C65.2426 4.55 63.9842 4.1 62.3676 4.1H60.3426V14.3H62.3676ZM82.5316 18.175C80.8816 18.175 79.365 17.7917 77.9816 17.025C76.615 16.2583 75.5233 15.1917 74.7066 13.825C73.9066 12.4417 73.5066 10.8917 73.5066 9.175C73.5066 7.45833 73.9066 5.91667 74.7066 4.55C75.5233 3.18333 76.615 2.11667 77.9816 1.35C79.365 0.583333 80.8816 0.2 82.5316 0.2C84.1816 0.2 85.69 0.583333 87.0566 1.35C88.44 2.11667 89.5233 3.18333 90.3066 4.55C91.1066 5.91667 91.5066 7.45833 91.5066 9.175C91.5066 10.8917 91.1066 12.4417 90.3066 13.825C89.5066 15.1917 88.4233 16.2583 87.0566 17.025C85.69 17.7917 84.1816 18.175 82.5316 18.175ZM82.5316 14.275C83.9316 14.275 85.0483 13.8083 85.8816 12.875C86.7316 11.9417 87.1566 10.7083 87.1566 9.175C87.1566 7.625 86.7316 6.39167 85.8816 5.475C85.0483 4.54167 83.9316 4.075 82.5316 4.075C81.115 4.075 79.9816 4.53333 79.1316 5.45C78.2983 6.36667 77.8816 7.60833 77.8816 9.175C77.8816 10.725 78.2983 11.9667 79.1316 12.9C79.9816 13.8167 81.115 14.275 82.5316 14.275ZM105.31 0.449999V3.875H98.16V7.575H103.51V10.9H98.16V18H93.885V0.449999H105.31ZM118.982 0.449999V3.875H111.832V7.575H117.182V10.9H111.832V18H107.557V0.449999H118.982Z" fill="#007FDB"/>
</svg>
