<svg width="376" height="358" viewBox="0 0 376 358" fill="none" xmlns="http://www.w3.org/2000/svg">
<path d="M6.51216 302.248C5.54976 298.002 6.79521 293.36 9.68239 290.133C12.9092 286.566 17.891 284.868 20.7782 281.018C24.0616 276.603 23.8352 270.602 23.722 265.111C23.6088 259.619 24.1749 253.392 28.4207 249.882C31.4777 247.335 35.6669 246.825 39.2901 245.24C42.8566 243.655 45.9702 240.881 47.895 237.428C49.0272 235.446 49.7631 233.352 50.8954 231.37C52.0276 229.446 53.6127 227.634 55.8205 226.955C59.104 225.992 62.7837 228.143 64.2556 231.201C65.7841 234.258 65.4445 237.994 64.3122 241.221C63.18 244.448 61.3118 247.335 59.6135 250.335C57.9718 253.336 56.4433 256.562 56.2734 259.959C55.9338 265.28 58.7077 270.206 60.6325 275.187C62.5573 280.169 63.4631 286.34 60.0098 290.359C57.2358 293.586 52.3673 294.605 49.8764 298.058C47.8384 300.889 47.895 304.739 46.5363 308.022C44.2152 313.57 37.9314 316.57 31.9306 316.797C22.3067 317.193 8.88983 312.834 6.51216 302.248Z" fill="#4C9BE8"/>
<path d="M22.7031 308.871L44.8381 260.525L24.7977 309.664L22.7031 308.871Z" fill="white"/>
<path d="M222.147 161.682H147.93L133.777 182.741L119.964 161.682H47.0484C42.4062 161.682 38.6133 157.889 38.6133 153.247V8.66164C38.6133 4.01952 42.4062 0.226562 47.0484 0.226562H222.147C226.789 0.226562 230.582 4.01952 230.582 8.66164V153.19C230.582 157.889 226.789 161.682 222.147 161.682Z" fill="#4C9BE8"/>
<path d="M222.149 161.682C222.149 161.682 222.319 161.682 222.602 161.625C222.885 161.625 223.395 161.568 223.961 161.455C225.15 161.172 226.905 160.549 228.49 158.738C229.282 157.832 229.905 156.643 230.245 155.228C230.358 154.888 230.358 154.492 230.414 154.152C230.414 153.756 230.471 153.36 230.471 152.964C230.471 152.171 230.471 151.322 230.471 150.473C230.471 146.963 230.471 143 230.471 138.471C230.471 120.355 230.414 94.2011 230.414 61.8761C230.414 45.6853 230.414 28.0226 230.358 9.00119C230.414 6.68013 229.452 4.30245 227.697 2.71734C226.848 1.92478 225.772 1.30206 224.64 0.90578C223.508 0.509501 222.319 0.45289 221.074 0.509501C216.148 0.509501 211.167 0.509501 206.128 0.509501C195.995 0.509501 185.578 0.509501 174.879 0.509501C153.48 0.509501 131.062 0.509501 107.794 0.509501C96.1892 0.509501 84.3008 0.509501 72.2992 0.509501C66.2984 0.509501 60.241 0.509501 54.127 0.509501C52.5985 0.509501 51.07 0.509501 49.5415 0.509501H47.2205C46.8242 0.509501 46.4845 0.566112 46.0882 0.566112C45.7486 0.622724 45.3523 0.679335 45.0126 0.792557C43.5407 1.13222 42.2387 1.92478 41.1631 2.94378C40.2007 3.96279 39.4647 5.32146 39.125 6.73674C38.7854 8.0388 38.8986 9.45408 38.8986 10.8127C38.8986 12.228 38.8986 13.5867 38.8986 14.9454C38.8986 17.7193 38.8986 20.4933 38.8986 23.2106C38.8986 28.7019 38.8986 34.1932 38.8986 39.6279C38.8986 50.4972 38.8986 61.2534 38.8986 71.8397C38.8986 92.9557 38.8986 113.449 38.8986 133.093C38.8986 138.018 38.8986 142.83 38.8986 147.642C38.8986 148.831 38.8986 150.02 38.8986 151.209C38.8986 152.397 38.842 153.586 39.0684 154.719C39.5213 156.983 40.9932 159.021 42.918 160.153C43.8804 160.719 45.0126 161.116 46.1448 161.229C47.2771 161.342 48.4659 161.285 49.5981 161.285C51.9192 161.285 54.1836 161.285 56.5047 161.285C61.0902 161.285 65.5625 161.285 70.0348 161.285C87.8107 161.285 104.511 161.285 120.023 161.285H120.136L120.192 161.342C125.004 168.701 129.646 175.721 134.005 182.401H133.722C138.761 174.929 143.516 167.909 147.932 161.399L147.988 161.342H148.045C171.539 161.399 190.051 161.399 202.732 161.399C209.072 161.399 213.941 161.455 217.224 161.455C218.866 161.455 220.111 161.455 220.96 161.455C221.696 161.682 222.149 161.682 222.149 161.682C222.149 161.682 221.696 161.682 220.904 161.682C220.055 161.682 218.809 161.682 217.167 161.682C213.884 161.682 209.015 161.682 202.675 161.738C189.994 161.738 171.426 161.795 147.988 161.795L148.102 161.738C143.686 168.249 138.987 175.268 133.949 182.798L133.779 183.024L133.609 182.798C129.25 176.118 124.608 169.098 119.796 161.795L119.966 161.852C104.454 161.852 87.6975 161.852 69.9782 161.852C65.5625 161.852 61.0336 161.852 56.4481 161.852C54.1836 161.852 51.8626 161.852 49.5415 161.852C48.3527 161.852 47.2205 161.908 46.0316 161.795C44.8428 161.625 43.7106 161.285 42.6349 160.663C40.5403 159.417 39.0118 157.323 38.5589 154.888C38.3325 153.7 38.3891 152.454 38.3891 151.265C38.3891 150.076 38.3891 148.888 38.3891 147.699C38.3891 142.887 38.3891 138.018 38.3891 133.15C38.3891 113.506 38.3891 93.0123 38.3891 71.8963C38.3891 61.31 38.3891 50.6104 38.3891 39.6845C38.3891 34.2498 38.3891 28.7585 38.3891 23.2672C38.3891 20.4933 38.3891 17.7759 38.3891 15.002C38.3891 13.6433 38.3891 12.228 38.3891 10.8694V8.77474C38.3891 8.0388 38.4457 7.35946 38.6155 6.62352C38.9552 5.09501 39.8044 3.67973 40.88 2.54751C42.0122 1.41528 43.4275 0.622724 44.956 0.283056C45.3523 0.169834 45.7486 0.169834 46.1448 0.0566112C46.5411 0.0566112 46.9374 0 47.3337 0H49.6547C51.1832 0 52.7117 0 54.2403 0C60.3543 0 66.3551 0 72.4125 0C84.414 0 96.2458 0 107.908 0C131.175 0 153.593 0 174.992 0C185.692 0 196.108 0 206.241 0C211.28 0 216.318 0 221.187 0C222.376 0 223.678 0 224.867 0.45289C226.055 0.849169 227.131 1.47189 228.037 2.32106C228.943 3.17023 229.679 4.18923 230.131 5.32146C230.584 6.45368 230.811 7.69913 230.811 8.88796C230.811 27.9093 230.811 45.6287 230.754 61.7629C230.698 94.0879 230.698 120.242 230.698 138.358C230.698 142.887 230.698 146.906 230.698 150.359C230.698 151.209 230.698 152.058 230.698 152.85C230.698 153.247 230.641 153.643 230.641 154.039C230.584 154.435 230.528 154.775 230.414 155.171C230.075 156.587 229.395 157.832 228.603 158.681C227.018 160.493 225.15 161.172 224.017 161.399C223.395 161.512 222.942 161.568 222.659 161.568C222.262 161.682 222.149 161.682 222.149 161.682Z" fill="#4C9BE8"/>
<path d="M135.637 76.5401C149.613 76.5401 160.942 65.2106 160.942 51.2349C160.942 37.2592 149.613 25.9297 135.637 25.9297C121.662 25.9297 110.332 37.2592 110.332 51.2349C110.332 65.2106 121.662 76.5401 135.637 76.5401Z" fill="white"/>
<path d="M221.255 16.2845C222.183 12.0708 219.519 7.9029 215.305 6.97526C211.092 6.04761 206.924 8.71147 205.996 12.9252C205.068 17.1388 207.732 21.3067 211.946 22.2343C216.16 23.162 220.327 20.4981 221.255 16.2845Z" fill="#007FDB"/>
<path d="M211.048 17.377C210.991 17.377 210.934 17.377 210.878 17.3204C210.765 17.2072 210.765 17.094 210.878 16.9807L215.916 11.9423C216.03 11.8291 216.143 11.8291 216.256 11.9423C216.369 12.0556 216.369 12.1688 216.256 12.282L211.218 17.3204C211.218 17.3204 211.161 17.377 211.048 17.377Z" fill="white"/>
<path d="M216.141 17.377C216.084 17.377 216.028 17.377 215.971 17.3204L210.933 12.282C210.819 12.1688 210.819 12.0556 210.933 11.9423C211.046 11.8291 211.159 11.8291 211.272 11.9423L216.311 16.9807C216.424 17.094 216.424 17.2072 216.311 17.3204C216.254 17.3204 216.197 17.377 216.141 17.377Z" fill="white"/>
<path d="M189.65 97.9947H81.5789C80.2768 97.9947 79.2578 96.9757 79.2578 95.6736V90.0125C79.2578 88.7104 80.2768 87.6914 81.5789 87.6914H189.65C190.952 87.6914 191.971 88.7104 191.971 90.0125V95.6736C191.971 96.9757 190.952 97.9947 189.65 97.9947Z" fill="#72BEFC"/>
<path d="M189.65 119.11H81.5789C80.2768 119.11 79.2578 118.091 79.2578 116.789V111.128C79.2578 109.826 80.2768 108.807 81.5789 108.807H189.65C190.952 108.807 191.971 109.826 191.971 111.128V116.789C191.971 118.091 190.952 119.11 189.65 119.11Z" fill="#72BEFC"/>
<path d="M158.57 140.282H81.5789C80.2768 140.282 79.2578 139.263 79.2578 137.961V132.3C79.2578 130.998 80.2768 129.979 81.5789 129.979H158.57C159.872 129.979 160.891 130.998 160.891 132.3V137.961C160.891 139.206 159.872 140.282 158.57 140.282Z" fill="#72BEFC"/>
<path d="M148.778 45.6065L144.695 41.5234L129.244 56.9749L133.327 61.058L148.778 45.6065Z" fill="#3734A9"/>
<path d="M126.509 46.0341L122.426 50.1172L133.314 61.0053L137.397 56.9222L126.509 46.0341Z" fill="#3734A9"/>
<path d="M52.6473 304.287H9V357.445H52.6473V304.287Z" fill="#2564AF"/>
<path d="M38.7221 304.287H0V357.445H38.7221V304.287Z" fill="#007FDB"/>
<path d="M307.573 186.024L284.645 182.74L238.734 189.534L225.883 194.062L228.147 222.198L272.247 230.35L302.025 221.519L313.291 204.988L307.573 186.024Z" fill="#F6F5F7"/>
<path d="M322.008 188.744L302.817 184.215C302.817 184.215 289.23 226.164 255.773 224.352C228.486 222.88 228.146 192.423 228.146 192.423L208.502 198.707C208.502 198.707 200.973 249.148 209.295 284.926C211.22 293.305 213.824 304.514 213.824 304.514L211.163 356.766L356.654 356.992L322.008 188.744Z" fill="#4C9BE8"/>
<path d="M265 346.634C272.076 346.464 278.587 347.031 285.72 346.861C294.211 346.634 302.76 346.464 311.138 347.823C317.422 348.842 323.536 350.767 329.82 351.786C338.368 353.145 347.539 352.635 355.182 348.502L353.936 341.369L324.951 334.406L265 346.634Z" fill="#2564AF"/>
<path d="M192.085 210.48C198.765 201.875 209.805 198.309 209.805 198.309L217.221 263.128L203.124 357.499L156.93 357.273C156.93 357.216 182.405 222.934 192.085 210.48Z" fill="#4C9BE8"/>
<path d="M319.801 188.232C319.801 188.232 350.881 190.723 362.033 241.617C367.071 264.658 373.468 291.661 375.28 309.777C376.639 322.911 369.449 343.517 356.372 345.215L339.898 347.423C336.671 347.876 333.388 347.819 330.161 347.084C319.744 344.706 318.669 337.573 316.857 329.93L312.045 314.759C309.441 300.323 322.858 297.605 330.331 297.775L324.783 231.823L319.801 188.232Z" fill="#4C9BE8"/>
<path d="M207.363 277.055C199.438 263.638 199.268 246.202 206.175 232.219C204.137 247.108 204.306 262.336 207.59 276.998" fill="#2564AF"/>
<path d="M249.66 310.74C249.717 310.74 249.773 310.797 249.773 310.797C249.773 310.797 249.717 310.797 249.66 310.74Z" fill="#FFBE9D"/>
<path d="M249.383 310.625C249.496 310.682 249.609 310.738 249.666 310.738C249.609 310.738 249.496 310.682 249.383 310.625Z" fill="#FFBE9D"/>
<path d="M249.207 310.568C249.264 310.568 249.264 310.625 249.32 310.625C249.264 310.568 249.207 310.568 249.207 310.568Z" fill="#FFBE9D"/>
<path d="M220.001 337.344C222.491 332.645 241.966 320.191 241.966 320.191L236.701 318.946L230.87 321.436C230.87 321.436 230.53 323.814 228.379 326.871C226.228 329.928 222.605 326.758 222.605 326.758L225.039 314.983L236.588 308.02C236.588 308.02 247.457 309.661 249.212 310.51L253.854 314.756C255.892 316.341 261.723 322.625 263.365 322.795C264.95 322.965 315.277 311.643 315.277 311.643C322.184 317.134 325.807 327.947 326.883 335.816C326.883 335.816 328.128 339.665 326.769 341.76L265.007 346.628L251.929 350.252C251.929 350.252 244.683 353.195 241.173 353.931C236.814 354.837 233.87 353.422 233.757 351.044C233.644 348.61 237.041 348.383 237.041 348.383C237.041 348.383 242.532 346.402 245.476 344.704C248.419 343.005 250.231 339.495 250.231 339.495L245.589 340.062C245.589 340.062 235.682 346.968 231.946 348.949C228.209 350.987 227.473 347.251 227.19 346.119C226.907 344.987 238.343 333.778 238.343 333.778C238.343 333.778 227.473 340.514 225.492 342.156C223.51 343.854 220.623 344.364 220.001 343.232C219.321 342.1 217.51 342.1 220.001 337.344Z" fill="#F6F5F7"/>
<path d="M249.773 310.852C249.83 310.852 249.83 310.908 249.887 310.908C249.887 310.852 249.83 310.852 249.773 310.852Z" fill="#FFBE9D"/>
<path d="M249.887 310.852C249.887 310.852 249.944 310.852 249.944 310.909C249.944 310.909 249.944 310.909 249.887 310.852Z" fill="#FFBE9D"/>
<path d="M273.716 338.42C273.773 338.42 273.773 338.137 273.773 337.627C273.773 337.401 273.773 337.061 273.716 336.721C273.66 336.382 273.603 335.985 273.49 335.532C273.093 333.777 271.961 331.57 270.32 329.418C268.678 327.267 266.866 325.625 265.564 324.493C264.262 323.361 263.356 322.738 263.3 322.738C263.243 322.795 264.036 323.531 265.338 324.72C266.583 325.909 268.338 327.607 269.98 329.701C271.622 331.796 272.754 333.947 273.207 335.589C273.66 337.344 273.603 338.476 273.716 338.42Z" fill="#E0EAFF"/>
<path d="M242.469 319.854C242.469 319.968 243.997 320.137 245.809 319.571C247.62 318.949 248.753 317.873 248.639 317.816C248.583 317.703 247.337 318.609 245.639 319.175C243.941 319.684 242.469 319.684 242.469 319.854Z" fill="#E0EAFF"/>
<path d="M239.243 332.761C239.3 332.874 241.508 332.081 244.225 330.949C246.942 329.817 249.037 328.854 249.037 328.741C248.98 328.628 246.773 329.421 244.055 330.553C241.338 331.628 239.187 332.647 239.243 332.761Z" fill="#E0EAFF"/>
<path d="M249.655 339.33C249.711 339.444 250.843 338.991 252.202 338.424C253.561 337.858 254.693 337.462 254.693 337.349C254.636 337.236 253.448 337.462 252.032 337.972C250.617 338.594 249.598 339.217 249.655 339.33Z" fill="#E0EAFF"/>
<path d="M240.83 333.61C240.774 333.723 241.906 334.176 242.755 335.308C243.604 336.44 243.717 337.629 243.887 337.629C243.944 337.629 244 337.346 243.944 336.837C243.887 336.327 243.604 335.648 243.151 335.082C242.698 334.459 242.076 334.063 241.623 333.836C241.17 333.553 240.83 333.553 240.83 333.61Z" fill="#E0EAFF"/>
<path d="M236.245 326.42C236.188 326.533 237.037 326.986 237.604 328.005C238.17 328.968 238.17 329.93 238.283 329.93C238.396 329.987 238.623 328.854 238 327.722C237.32 326.59 236.245 326.25 236.245 326.42Z" fill="#E0EAFF"/>
<path d="M237.827 313.516C237.883 313.516 238.053 313.346 238.167 312.893C238.28 312.497 238.336 311.817 238.223 311.195C238.053 310.515 237.714 310.006 237.431 309.666C237.091 309.326 236.864 309.213 236.808 309.27C236.695 309.383 237.487 310.062 237.77 311.251C238.053 312.497 237.657 313.459 237.827 313.516Z" fill="#E0EAFF"/>
<path d="M205.561 229.957C205.561 230.013 205.278 229.9 204.712 229.674C204.202 229.447 203.467 229.108 202.561 228.711C200.749 227.806 198.372 226.447 195.881 224.635C193.446 222.824 191.408 220.956 189.993 219.484C189.314 218.748 188.748 218.125 188.408 217.729C188.068 217.276 187.898 217.049 187.898 217.049C187.955 216.993 188.804 217.899 190.22 219.257C191.635 220.616 193.673 222.484 196.107 224.239C198.541 226.051 200.862 227.466 202.617 228.428C204.486 229.334 205.618 229.9 205.561 229.957Z" fill="white"/>
<path d="M315.724 233.58C315.724 233.58 315.668 233.637 315.498 233.75C315.328 233.863 315.045 234.033 314.762 234.203C314.139 234.599 313.177 235.109 311.875 235.788C309.327 237.09 305.591 238.845 300.779 240.487C295.967 242.128 290.023 243.6 283.399 244.676C276.719 245.751 269.36 246.318 261.547 246.487C253.792 246.657 246.375 246.544 239.639 246.374C232.902 246.204 226.845 245.808 221.806 245.016C216.768 244.28 212.748 243.204 210.031 242.298C208.672 241.845 207.653 241.449 206.974 241.166C206.634 241.053 206.408 240.94 206.181 240.826C206.012 240.77 205.898 240.713 205.898 240.713C205.898 240.713 206.012 240.713 206.181 240.77C206.408 240.826 206.634 240.94 206.974 241.053C207.653 241.336 208.729 241.675 210.088 242.128C212.805 242.978 216.824 243.997 221.806 244.676C226.845 245.412 232.902 245.751 239.639 245.921C246.375 246.035 253.792 246.204 261.547 245.978C269.303 245.808 276.662 245.242 283.343 244.223C289.966 243.204 295.854 241.732 300.722 240.147C305.534 238.562 309.327 236.864 311.875 235.618C313.12 234.995 314.139 234.486 314.762 234.09C315.102 233.92 315.328 233.807 315.498 233.693C315.668 233.58 315.724 233.58 315.724 233.58Z" fill="white"/>
<path d="M205.897 267.543C205.897 267.6 205.444 267.487 204.708 267.317C203.859 267.09 202.783 266.807 201.538 266.468C198.877 265.732 195.197 264.656 191.121 263.411C187.045 262.222 183.366 261.09 180.761 260.241C179.516 259.844 178.44 259.505 177.648 259.222C176.912 258.995 176.516 258.825 176.516 258.769C176.516 258.712 176.969 258.825 177.704 258.995C178.554 259.222 179.629 259.505 180.875 259.844C183.535 260.58 187.215 261.656 191.291 262.901C195.367 264.09 199.047 265.222 201.651 266.071C202.896 266.468 203.972 266.807 204.765 267.09C205.501 267.374 205.897 267.487 205.897 267.543Z" fill="white"/>
<path d="M208.676 320.305C208.619 320.419 199.108 317.701 187.39 314.191C175.671 310.682 166.217 307.738 166.274 307.625C166.33 307.511 175.841 310.229 187.56 313.739C199.278 317.248 208.732 320.192 208.676 320.305Z" fill="white"/>
<path d="M346.631 206.178C346.631 206.178 346.291 206.517 345.555 207.027C344.876 207.536 343.857 208.216 342.555 209.065C339.951 210.763 336.327 212.914 332.082 215.009C327.836 217.104 323.873 218.632 320.986 219.651C319.514 220.161 318.325 220.557 317.533 220.783C316.683 221.01 316.23 221.123 316.23 221.123C316.23 221.066 316.683 220.897 317.476 220.614C318.382 220.274 319.514 219.878 320.873 219.368C323.76 218.293 327.666 216.651 331.855 214.613C336.044 212.575 339.724 210.424 342.328 208.838C343.574 208.046 344.593 207.423 345.442 206.914C346.178 206.404 346.574 206.178 346.631 206.178Z" fill="white"/>
<path d="M365.656 260.41C365.656 260.467 365.09 260.693 364.127 261.146C363.108 261.599 361.636 262.165 359.768 262.844C356.088 264.203 350.824 265.788 344.936 266.977C339.048 268.166 333.557 268.675 329.651 268.845C327.67 268.902 326.084 268.958 324.952 268.902C323.877 268.902 323.254 268.845 323.254 268.789C323.254 268.732 323.877 268.732 324.952 268.675C326.028 268.619 327.67 268.562 329.594 268.449C333.501 268.223 338.935 267.656 344.823 266.468C350.71 265.279 355.919 263.75 359.655 262.448C361.523 261.825 362.995 261.259 364.014 260.863C365.033 260.58 365.599 260.41 365.656 260.41Z" fill="white"/>
<path d="M338.146 347.197C338.146 347.197 338.146 347.027 338.203 346.688C338.259 346.291 338.316 345.782 338.429 345.159C338.542 344.536 338.656 343.687 338.769 342.781C338.882 341.876 339.052 340.8 339.052 339.611C339.109 339.045 339.109 338.422 339.165 337.743C339.222 337.12 339.165 336.441 339.165 335.762C339.222 334.403 339.109 332.874 339.052 331.346C338.826 328.232 338.316 324.836 337.523 321.326C336.674 317.816 335.542 314.589 334.353 311.702C333.73 310.287 333.108 308.928 332.428 307.682C332.089 307.06 331.806 306.494 331.466 305.928C331.126 305.361 330.843 304.852 330.504 304.342C329.938 303.323 329.315 302.474 328.805 301.682C328.296 300.889 327.843 300.266 327.447 299.7C327.107 299.191 326.767 298.795 326.541 298.455C326.314 298.172 326.258 298.002 326.258 298.002C326.258 298.002 326.371 298.115 326.598 298.398C326.881 298.738 327.164 299.078 327.56 299.587C328.013 300.097 328.466 300.719 329.032 301.512C329.541 302.304 330.221 303.154 330.843 304.173C331.183 304.682 331.466 305.192 331.806 305.758C332.145 306.324 332.428 306.89 332.768 307.513C333.447 308.701 334.07 310.117 334.749 311.532C335.995 314.419 337.127 317.703 338.033 321.213C338.882 324.722 339.335 328.176 339.561 331.289C339.618 332.874 339.731 334.346 339.675 335.762C339.675 336.441 339.675 337.12 339.618 337.8C339.561 338.422 339.505 339.045 339.448 339.668C339.392 340.857 339.222 341.932 339.052 342.838C338.939 343.8 338.769 344.593 338.656 345.216C338.542 345.838 338.429 346.291 338.316 346.688C338.203 346.971 338.146 347.197 338.146 347.197Z" fill="white"/>
<path d="M374.993 317.929C374.936 317.929 374.936 317.136 374.71 315.778C374.483 314.419 373.974 312.438 372.842 310.23C371.709 308.022 369.898 305.588 367.463 303.436C364.973 301.285 361.859 299.36 358.292 298.058C354.726 296.813 351.103 296.303 347.763 296.19C344.479 296.077 341.479 296.303 338.988 296.53C336.497 296.756 334.459 297.039 333.1 297.153C332.421 297.209 331.912 297.266 331.515 297.322C331.176 297.379 330.949 297.379 330.949 297.322C330.949 297.322 331.119 297.266 331.515 297.209C331.912 297.153 332.478 297.039 333.1 296.926C334.459 296.7 336.497 296.417 338.988 296.133C341.479 295.85 344.479 295.624 347.819 295.681C351.159 295.794 354.839 296.247 358.462 297.549C362.085 298.851 365.256 300.832 367.747 303.04C370.237 305.305 372.049 307.739 373.125 310.003C374.257 312.268 374.71 314.306 374.88 315.721C374.993 316.4 374.936 316.966 374.993 317.363C375.049 317.702 375.049 317.929 374.993 317.929Z" fill="white"/>
<path d="M272.357 290.302C272.357 290.302 272.187 290.359 271.791 290.415C271.395 290.472 270.885 290.529 270.262 290.585C268.847 290.699 266.922 290.868 264.545 291.038C259.733 291.434 252.996 291.887 245.636 292.227C238.22 292.623 231.54 292.85 226.672 292.906C224.237 292.906 222.256 292.906 220.897 292.906C220.275 292.906 219.765 292.85 219.312 292.85C218.973 292.85 218.746 292.793 218.746 292.793C218.746 292.793 218.916 292.737 219.312 292.737C219.708 292.737 220.218 292.737 220.897 292.68C222.313 292.623 224.237 292.623 226.615 292.567C231.484 292.397 238.164 292.114 245.523 291.774C252.883 291.378 259.563 290.982 264.431 290.699C266.809 290.585 268.734 290.472 270.149 290.359C270.772 290.359 271.281 290.302 271.734 290.302C272.131 290.246 272.357 290.246 272.357 290.302Z" fill="white"/>
<path d="M326.647 286.002C326.647 286.002 326.477 286.059 326.194 286.115C325.798 286.172 325.345 286.285 324.779 286.398C323.59 286.625 321.835 286.964 319.627 287.361C315.268 288.097 309.267 289.059 302.587 289.851C295.907 290.644 289.849 291.21 285.434 291.493C283.226 291.663 281.471 291.776 280.226 291.776C279.659 291.776 279.207 291.833 278.81 291.833C278.471 291.833 278.301 291.833 278.301 291.833C278.301 291.833 278.471 291.776 278.81 291.776C279.207 291.72 279.659 291.72 280.226 291.606C281.528 291.493 283.283 291.323 285.434 291.154C289.793 290.757 295.85 290.135 302.53 289.342C309.211 288.549 315.211 287.644 319.57 286.964C321.665 286.625 323.42 286.342 324.722 286.172C325.288 286.115 325.741 286.002 326.137 285.945C326.477 286.002 326.647 285.945 326.647 286.002Z" fill="white"/>
<path d="M316.628 243.484C315.099 260.751 319.854 277.904 324.496 294.604C324.78 295.623 325.063 296.699 325.799 297.492C326.478 298.284 327.723 298.737 328.629 298.284C330.101 297.548 329.875 295.453 329.478 293.868C325.176 277.338 320.817 260.751 316.514 244.22" fill="#2564AF"/>
<path d="M75.02 260.693L94.6641 356.989H230.644H264.894C266.762 356.989 268.291 355.46 268.291 353.592C268.291 351.724 266.762 350.195 264.894 350.195H230.644L212.472 260.636C212.132 258.938 210.604 257.693 208.849 257.636L78.6997 256.221C76.322 256.221 74.5105 258.372 75.02 260.693Z" fill="#3734A9"/>
<path d="M159.874 304.795C159.874 311.419 154.496 316.797 147.873 316.797C141.249 316.797 135.871 311.419 135.871 304.795C135.871 298.171 141.249 292.793 147.873 292.793C154.44 292.737 159.874 298.115 159.874 304.795Z" fill="#4040CC"/>
<path d="M302.532 115.203C303.041 132.979 295.512 150.812 282.435 162.813C279.434 154.152 276.434 145.434 273.434 136.772" fill="#263238"/>
<path d="M234.715 63.4015C242.414 59.1556 251.755 58.5895 260.36 60.2879C268.965 62.0428 277.004 65.8924 284.646 70.308C288.892 72.7989 293.195 75.5163 296.252 79.3658C301.856 86.4422 307.404 97.9909 307.913 106.992C308.366 114.238 305.592 132.467 302.479 139.091C299.648 145.148 286.458 149.79 279.948 151.262L220.223 81.7435C222.374 73.9878 227.695 67.251 234.715 63.4015Z" fill="#353A66"/>
<path d="M224.417 72.8014L238.739 70.2539C230.927 88.9356 228.776 131.564 224.303 151.321C219.039 143.679 206.754 120.298 207.433 111.014C208.113 101.673 207.377 71.2163 224.417 72.8014Z" fill="#353A66"/>
<path d="M292.402 103.823C291.61 92.8974 284.59 84.0094 274.003 81.2921L240.999 72.857C226.733 71.3285 217.222 88.878 216.26 103.201C215.241 119.108 214.562 135.865 216.43 147.754C220.166 171.644 238.452 174.701 238.452 174.701C238.452 174.644 238.452 186.079 238.452 193.043L249.491 238.785L285.099 189.646L292.459 104.163C292.459 103.71 292.402 104.389 292.402 103.823Z" fill="#F6F5F7"/>
<path d="M223.392 121.194C223.336 122.836 224.638 124.194 226.336 124.307C228.035 124.421 229.45 123.175 229.506 121.533C229.563 119.892 228.261 118.533 226.563 118.42C224.864 118.363 223.449 119.609 223.392 121.194Z" fill="#263238"/>
<path d="M219.803 112.535C220.2 112.932 222.521 111.233 225.804 111.233C229.088 111.177 231.522 112.875 231.862 112.479C232.031 112.309 231.635 111.573 230.616 110.837C229.597 110.045 227.842 109.309 225.748 109.309C223.71 109.309 221.955 110.045 220.992 110.837C219.973 111.63 219.634 112.366 219.803 112.535Z" fill="#263238"/>
<path d="M252.068 121.194C252.012 122.836 253.314 124.194 255.012 124.307C256.71 124.421 258.126 123.175 258.182 121.533C258.239 119.892 256.937 118.533 255.238 118.42C253.54 118.363 252.125 119.609 252.068 121.194Z" fill="#263238"/>
<path d="M251.104 112.535C251.5 112.932 253.822 111.233 257.105 111.233C260.388 111.177 262.823 112.875 263.162 112.479C263.332 112.309 262.936 111.573 261.917 110.837C260.898 110.045 259.143 109.309 257.048 109.309C255.01 109.309 253.255 110.045 252.293 110.837C251.274 111.63 250.934 112.366 251.104 112.535Z" fill="#263238"/>
<path d="M240.763 138.411C240.763 138.241 238.725 137.845 235.442 137.448C234.592 137.335 233.8 137.165 233.687 136.599C233.517 135.977 233.857 135.071 234.253 134.108C235.045 132.07 235.895 129.919 236.744 127.711C240.197 118.597 242.745 111.124 242.348 110.954C241.952 110.841 238.838 118.087 235.385 127.202C234.536 129.466 233.743 131.618 233.007 133.656C232.668 134.618 232.158 135.694 232.554 136.939C232.781 137.562 233.404 138.015 233.913 138.184C234.479 138.354 234.932 138.354 235.328 138.411C238.725 138.581 240.763 138.581 240.763 138.411Z" fill="#263238"/>
<path d="M270.103 166.205C270.103 166.205 262.347 182.622 238.457 180.301V174.697C238.457 174.697 254.195 175.716 270.103 166.205Z" fill="#E0EAFF"/>
<path d="M252.153 100.659C252.493 101.565 255.776 101.112 259.626 101.621C263.475 102.018 266.589 103.15 267.155 102.357C267.381 101.961 266.815 101.112 265.57 100.263C264.324 99.4134 262.343 98.5643 260.022 98.2812C257.701 97.9981 255.606 98.3944 254.191 98.9605C252.719 99.5267 251.983 100.206 252.153 100.659Z" fill="#263238"/>
<path d="M220.886 102.451C221.452 103.187 223.716 102.451 226.49 102.395C229.207 102.281 231.528 102.904 232.038 102.112C232.264 101.715 231.925 100.979 230.906 100.243C229.887 99.5076 228.245 98.9414 226.377 98.998C224.509 99.0547 222.867 99.734 221.905 100.47C220.942 101.319 220.603 102.112 220.886 102.451Z" fill="#263238"/>
<path d="M222.718 81.4078C224.19 77.8413 228.096 75.6334 232.002 75.4636C235.852 75.2938 239.645 76.709 242.985 78.6904C257.194 86.8991 264.497 106.77 278.537 115.261C281.99 117.356 286.462 115.431 289.406 118.205C292.35 120.979 294.275 125.395 292.633 129.074C294.501 126.47 296.426 123.866 297.502 120.809C298.577 117.809 298.691 114.299 297.105 111.525C295.917 109.43 293.765 107.789 293.143 105.468C292.633 103.373 293.426 101.222 293.369 99.0705C293.256 96.9193 292.237 94.8813 291.161 92.9565C285.67 83.2193 278.084 74.4446 268.347 68.9533C262.006 65.3868 254.704 63.2922 247.401 63.5186C240.098 63.7451 232.795 66.4624 227.474 71.4442C224.417 74.388 221.077 77.445 222.718 81.4078Z" fill="#353A66"/>
<path d="M289.121 121.146C289.348 120.466 301.802 115.994 301.972 129.184C302.142 142.035 289.178 139.488 289.121 139.148C289.121 138.752 289.121 121.146 289.121 121.146Z" fill="#F6F5F7"/>
<path d="M293.077 134.232C293.133 134.176 293.303 134.402 293.699 134.572C294.096 134.742 294.718 134.855 295.398 134.572C296.756 134.062 297.889 131.911 297.889 129.59C297.889 128.401 297.662 127.326 297.209 126.363C296.813 125.401 296.19 124.778 295.511 124.665C294.832 124.495 294.322 124.948 294.209 125.288C294.039 125.627 294.096 125.91 294.039 125.91C293.982 125.967 293.756 125.684 293.869 125.174C293.926 124.891 294.096 124.608 294.379 124.382C294.662 124.155 295.115 123.986 295.624 124.042C296.643 124.099 297.492 125.005 298.002 126.024C298.511 127.043 298.851 128.288 298.794 129.59C298.738 132.194 297.436 134.629 295.568 135.195C294.662 135.421 293.926 135.195 293.53 134.855C293.077 134.572 293.02 134.232 293.077 134.232Z" fill="#E0EAFF"/>
<path d="M294.212 114.521C294.212 114.521 293.929 114.408 293.42 114.068C292.91 113.729 292.174 113.332 291.268 112.71C289.457 111.407 286.966 109.369 284.305 106.369C281.644 103.425 278.87 99.6323 275.813 95.3299C272.756 91.084 269.473 86.3853 265.227 82.1395C263.076 80.0448 260.811 78.1767 258.377 76.7048C256 75.2329 253.452 74.1573 250.961 73.3647C246.036 71.7796 241.281 71.4399 237.318 71.6664C233.412 71.8928 230.298 72.742 228.203 73.4779C227.128 73.8176 226.392 74.1573 225.826 74.3837C225.26 74.6102 224.977 74.7234 224.977 74.6668C224.977 74.6668 225.26 74.4969 225.769 74.2705C226.279 74.044 227.071 73.6478 228.147 73.3081C230.241 72.5155 233.355 71.6098 237.318 71.3267C241.281 70.987 246.093 71.3267 251.131 72.9118C253.622 73.7044 256.226 74.78 258.66 76.3085C261.095 77.7804 263.416 79.7052 265.623 81.7998C269.926 86.1022 273.266 90.8576 276.266 95.1034C279.267 99.4059 282.041 103.199 284.645 106.143C287.249 109.143 289.683 111.181 291.382 112.54C292.287 113.219 293.023 113.672 293.476 114.012C293.986 114.295 294.212 114.521 294.212 114.521Z" fill="#535D96"/>
<path d="M294.505 136.486C295.751 136.259 297.109 137.109 297.449 138.354C297.732 139.599 296.996 141.015 295.751 141.411C294.562 141.807 293.09 141.128 292.637 139.939C292.184 138.75 292.807 137.278 293.939 136.712" fill="#4C9BE8"/>
<path d="M293.933 136.711C293.99 136.767 293.084 137.164 292.801 138.466C292.631 139.088 292.744 139.881 293.31 140.504C293.877 141.07 294.839 141.466 295.688 141.183C296.537 140.9 297.16 140.051 297.273 139.258C297.386 138.466 296.99 137.73 296.537 137.334C295.518 136.484 294.556 136.711 294.613 136.598C294.613 136.541 294.782 136.484 295.235 136.428C295.632 136.428 296.254 136.541 296.82 136.994C297.386 137.39 297.953 138.296 297.839 139.315C297.726 140.277 297.047 141.353 295.915 141.749C294.782 142.089 293.594 141.636 292.914 140.843C292.235 140.051 292.178 139.032 292.405 138.353C292.631 137.617 293.084 137.164 293.367 136.994C293.707 136.711 293.933 136.654 293.933 136.711Z" fill="#4C9BE8"/>
<path d="M290.987 118.149C291.214 121.659 291.327 125.395 289.742 128.509C288.1 131.622 284.024 133.773 280.967 132.018C278.476 130.603 277.74 127.433 277.287 124.546C276.042 116.337 275.533 108.072 274.23 99.9199L290.987 118.149Z" fill="#353A66"/>
<path d="M225.883 75.2905C225.883 75.3471 227.015 75.0641 229.053 75.0074C231.091 74.9508 234.148 75.2339 237.545 76.5359C239.243 77.2153 241.055 78.0644 242.866 79.2533C244.678 80.4421 246.489 81.8574 248.357 83.4425C252.037 86.6127 255.887 90.4623 259.114 95.0478C260.755 97.3689 262.171 99.6899 263.756 101.898C265.284 104.106 267.039 106.087 268.907 107.672C272.644 110.899 276.493 113.22 279.777 114.918C283.06 116.673 285.834 117.862 287.702 118.711C288.608 119.108 289.344 119.391 289.91 119.674C290.42 119.9 290.703 119.957 290.703 119.957C290.703 119.957 290.476 119.787 289.967 119.56C289.401 119.277 288.721 118.938 287.816 118.485C285.947 117.579 283.23 116.277 280.003 114.465C276.776 112.654 272.983 110.389 269.36 107.163C267.549 105.578 265.85 103.596 264.322 101.445C262.793 99.2937 261.321 96.916 259.68 94.5949C256.396 89.9528 252.49 86.1032 248.754 82.8764C246.886 81.2913 245.017 79.876 243.149 78.6872C241.281 77.4983 239.413 76.5926 237.658 75.9698C234.148 74.6678 231.034 74.4979 228.94 74.6112C227.921 74.6678 227.072 74.8376 226.562 74.9508C226.166 75.1773 225.883 75.2339 225.883 75.2905Z" fill="#535D96"/>
<path d="M291.324 110.222C291.324 110.278 291.72 110.505 292.456 111.014C293.362 111.524 294.438 112.147 295.74 112.939C296.08 113.166 296.476 113.335 296.816 113.562C297.212 113.788 297.665 113.958 298.231 114.015C298.514 114.015 298.797 114.015 299.08 113.788C299.363 113.619 299.533 113.279 299.533 112.939C299.533 112.26 299.193 111.75 298.91 111.297C297.778 109.429 296.476 107.391 295.117 105.24L294.608 105.693C295.797 106.599 297.212 107.278 298.74 107.731C300.269 108.184 301.854 108.354 303.326 108.297C303.722 108.297 304.118 108.24 304.515 108.071C304.911 107.957 305.307 107.674 305.534 107.221C305.703 106.769 305.534 106.259 305.307 105.919C305.081 105.58 304.798 105.353 304.571 105.127C302.646 103.259 301.231 101.334 300.212 99.5789C298.174 96.1257 297.551 93.6348 297.438 93.6348C297.382 93.6348 297.495 94.2575 297.835 95.3897C298.174 96.4653 298.74 98.0504 299.759 99.862C300.778 101.674 302.194 103.655 304.118 105.58C304.571 106.033 305.081 106.542 304.911 106.938C304.741 107.335 304.005 107.561 303.326 107.561C301.911 107.618 300.439 107.448 298.967 107.052C297.551 106.599 296.193 105.976 295.061 105.127L293.532 103.995L294.551 105.58C295.91 107.731 297.212 109.769 298.401 111.581C298.684 112.033 298.967 112.486 298.967 112.826C298.967 113.166 298.627 113.392 298.231 113.392C297.382 113.335 296.646 112.769 295.91 112.43C294.551 111.75 293.475 111.184 292.57 110.731C291.777 110.392 291.381 110.165 291.324 110.222Z" fill="#535D96"/>
<path d="M253.336 144.471C252.883 142.489 250.901 141.017 248.92 141.187C247.448 141.357 246.146 142.319 245.467 143.621C244.787 144.924 244.787 146.509 245.297 147.924L245.353 148.207C246.712 149.679 249.033 150.245 250.845 149.396C252.656 148.547 253.732 146.452 253.336 144.471Z" fill="#E0EAFF"/>
<path d="M242.932 148.375C242.932 147.865 246.272 148.035 248.763 145.318C251.254 142.6 251.084 139.034 251.537 139.034C251.764 138.977 252.16 139.883 252.103 141.355C252.103 142.827 251.481 144.978 249.952 146.62C248.424 148.261 246.442 148.941 245.084 148.997C243.725 148.997 242.876 148.601 242.932 148.375Z" fill="#263238"/>
<path d="M355.128 350.65C355.128 350.65 355.072 350.65 354.902 350.707C354.732 350.707 354.506 350.764 354.222 350.764C353.6 350.82 352.751 350.877 351.675 350.99C349.467 351.16 346.24 351.386 342.277 351.613C334.352 352.066 323.369 352.575 311.255 352.745C299.14 352.971 288.157 352.858 280.175 352.632C276.212 352.519 272.985 352.405 270.777 352.292C269.702 352.235 268.853 352.179 268.23 352.179C267.947 352.179 267.72 352.122 267.551 352.122C267.381 352.122 267.324 352.122 267.324 352.066C267.324 352.066 267.381 352.066 267.551 352.066C267.72 352.066 267.947 352.066 268.23 352.066C268.853 352.066 269.702 352.066 270.777 352.122C273.042 352.179 276.269 352.235 280.175 352.292C288.101 352.405 299.083 352.462 311.198 352.292C323.313 352.066 334.295 351.669 342.221 351.273C346.127 351.103 349.354 350.933 351.618 350.82C352.694 350.764 353.543 350.707 354.166 350.707C354.449 350.707 354.675 350.707 354.845 350.707C355.015 350.65 355.128 350.65 355.128 350.65Z" fill="white"/>
</svg>
